<svg id="Layer_1" data-name="Layer 1" xmlns="http://www.w3.org/2000/svg" viewBox="0 0 402 402"><defs><style>.cls-1{fill:#fff;}.cls-2{fill:#ca9e67;}.cls-3{fill:#733f14;}.cls-4{opacity:0.5;}.cls-5{fill:none;}.cls-6{fill:#b5844e;}.cls-7{fill:#b17f4a;}.cls-8{fill:#ededed;}.cls-9{fill:#1d1d1b;}</style></defs><circle class="cls-1" cx="201" cy="200.67" r="200.67"/><path class="cls-2" d="M201,4.44c108.55,0,196.55,88,196.55,196.56S309.55,397.55,201,397.55,4.44,309.55,4.44,201,92.43,4.44,201,4.44ZM382.51,201A181.52,181.52,0,0,0,201,19.48C100.75,19.48,19.49,100.75,19.48,201S100.75,382.51,201,382.51,382.51,301.25,382.51,201Z"/><path class="cls-3" d="M201,0C311.83,0,402,90.17,402,201S311.83,402,201,402,0,311.83,0,201,90.17,0,201,0Zm0,393.11c105.93,0,192.11-86.18,192.11-192.11S306.93,8.89,201,8.89,8.89,95.07,8.89,201,95.07,393.11,201,393.11Z"/><path class="cls-3" d="M201,15.38c102.35,0,185.62,83.27,185.62,185.62S303.35,386.62,201,386.62,15.38,303.35,15.38,201,98.65,15.38,201,15.38Zm0,363c97.82,0,177.41-79.59,177.41-177.41S298.82,23.59,201,23.59,23.59,103.18,23.59,201,103.18,378.41,201,378.41Z"/><circle class="cls-2" cx="200.57" cy="201" r="113.89"/><g class="cls-4"><path class="cls-5" d="M95.21,156.22,244.87,305.87a113.7,113.7,0,0,0,25-14.82L110,131.21A114.25,114.25,0,0,0,95.21,156.22Z"/><path class="cls-5" d="M129.82,111.42,289.67,271.26a114,114,0,0,0,14.82-25L154.83,96.6A113.7,113.7,0,0,0,129.82,111.42Z"/><path class="cls-5" d="M86,201.24a114,114,0,0,0,3.68,28.81L171,311.44a114.66,114.66,0,0,0,42.67,2.84L86.8,187.39A115.1,115.1,0,0,0,86,201.24Z"/><path class="cls-5" d="M199.85,87.35a115.1,115.1,0,0,0-13.85.84l126.9,126.9a114.72,114.72,0,0,0-2.84-42.68L228.68,91A114.19,114.19,0,0,0,199.85,87.35Z"/><path class="cls-6" d="M171,311.44,89.64,230.05A114.1,114.1,0,0,0,171,311.44Z"/><path class="cls-6" d="M86.8,187.39,213.7,314.28a112.64,112.64,0,0,0,31.17-8.41L95.21,156.22A113.34,113.34,0,0,0,86.8,187.39Z"/><path class="cls-6" d="M110,131.21,269.88,291.05a114.39,114.39,0,0,0,19.79-19.79L129.82,111.42A114.39,114.39,0,0,0,110,131.21Z"/><path class="cls-6" d="M154.83,96.6,304.49,246.26a113.43,113.43,0,0,0,8.41-31.17L186,88.19A113.08,113.08,0,0,0,154.83,96.6Z"/><path class="cls-6" d="M228.68,91l81.38,81.38A114.12,114.12,0,0,0,228.68,91Z"/></g><path class="cls-7" d="M201,78.13A122.87,122.87,0,1,1,78.13,201h0A123,123,0,0,1,201,78.13Zm0,240.77A117.9,117.9,0,1,0,83.1,201,117.9,117.9,0,0,0,201,318.9Z"/><path class="cls-3" d="M87.4,126.05v0a8.85,8.85,0,0,0-10.85-6.23h0L76,120a8.29,8.29,0,0,0-3.72-4,8.42,8.42,0,0,0-6-.68,7.94,7.94,0,0,0-5,3.87L54.8,130.36l25,14.29,6.8-11.86a8.62,8.62,0,0,0,.84-6.75Zm-24.89,2.28L66.17,122a2.39,2.39,0,0,1,1.55-1.19,2.74,2.74,0,0,1,2,.24,2.68,2.68,0,0,1,1.21,1.6,2.48,2.48,0,0,1-.24,2L67.09,131ZM81.64,130l-4,7L72,133.79l4-7A3.14,3.14,0,0,1,78,125.26a3.21,3.21,0,0,1,4,2.2l0,.07a3.1,3.1,0,0,1-.32,2.45Z"/><path class="cls-3" d="M105.08,108.47l4.48-5-10.37-1.59A10.59,10.59,0,0,0,96.08,91.3a11,11,0,0,0-7.6-2.7,10.19,10.19,0,0,0-7.3,3.47l-8,8.91L94.5,120.23l3.75-4.17L92.58,111l3.49-3.87Zm-24-7.88,4.3-4.75a4.65,4.65,0,0,1,3.37-1.6h0a4.86,4.86,0,0,1,5.15,4.58v.06a4.71,4.71,0,0,1-1.25,3.54l-4.3,4.75Z"/><path class="cls-3" d="M130.3,70.56a14.45,14.45,0,0,0-9.56-6.27,15,15,0,0,0-5.59,29.41,15.36,15.36,0,0,0,2.95.28,15,15,0,0,0,12.19-23.42Zm-3.2,10.18a9.31,9.31,0,1,1-1.46-7,8.88,8.88,0,0,1,1.46,7Z"/><path class="cls-3" d="M175.67,39.51l-1.33,30.4-5.73,1.72-10.76-15L157,75.08l-5.74,1.71-17.78-24.7,5.68-1.7,12.57,17.44.92-21.46,3.81-1.14,12.57,17.44L170,41.2Z"/><path class="cls-3" d="M207.66,67.69,194.55,49.5l.3,18.4-5.59.09-.46-28.75,5.18-.08,13,18L206.63,39l5.61-.09.46,28.74Z"/><path class="cls-3" d="M258.19,49.42l-5.58-2L233,71l5.62,2,3.49-4.22,10.64,3.79,0,5.48,5.62,2ZM252.74,66.6,246,64.18l6.7-8.06Z"/><path class="cls-3" d="M293.61,71.68A10.2,10.2,0,0,0,289,65l-10.1-6.48L263.37,82.74l4.73,3,4.12-6.42,4.37,2.81.11,9.13,5.63,3.61-.11-10.5a10.39,10.39,0,0,0,3.38-.19,10.82,10.82,0,0,0,6.59-4.6A11,11,0,0,0,293.61,71.68Zm-6.18,4.89a5,5,0,0,1-3.09,2.15,4.74,4.74,0,0,1-3.7-.66l-5.38-3.44,5.31-8.27L286,69.79a4.7,4.7,0,0,1,2.15,3.06,5.07,5.07,0,0,1-.68,3.72Z"/><path class="cls-3" d="M328.14,99.62,307.37,119.5l-3.86-4,10.79-10.33-15.63,5.28-2.87-3,6-15.36L291,102.38l-3.87-4L307.9,78.46l3.65,3.83-8,20.57,20.89-7.08Z"/><path class="cls-3" d="M347.56,130.93l-18.32-.45L317.89,137l-2.78-4.84,11.34-6.54,8.8-16.07,3.26,5.66L333.17,125l11.11.26Z"/><path class="cls-3" d="M208.58,138.36l-52,18c.24-.64.46-1.29.66-2,3-9.84.31-17.88.46-27.61.4-25.8,36.28,0,44.24,6C204,134.4,206.19,136.22,208.58,138.36Z"/><path class="cls-3" d="M246.16,162.14a18.87,18.87,0,0,0-3.51.47l-98.36,22.77a19,19,0,0,0-4.75,1.79l-2.41-7a12.38,12.38,0,0,1,7.63-15.75l9.93-3.43,57-19.79,12.64-4.39A12.35,12.35,0,0,1,240,144.43v0Z"/><path class="cls-3" d="M267.34,202.42l-132.4,10-1.18-5.11A15.2,15.2,0,0,1,145.13,189h0l98.36-22.77a15.83,15.83,0,0,1,3.43-.4h.15A16.81,16.81,0,0,1,249,166a17.08,17.08,0,0,1,1.89.38,15.24,15.24,0,0,1,10.9,11.26l5.29,22.87A13.82,13.82,0,0,1,267.34,202.42Z"/><path class="cls-3" d="M291,223.79v17.76a18.08,18.08,0,0,1-18,18.06h-145a18.08,18.08,0,0,1-18.06-18.06v-6.88a18.08,18.08,0,0,1,18.06-18.06H128l4.08-.3,1.89-.14,1.89-.13,131.47-9.88,1.89-.14,1.9-.14.57,0a17.85,17.85,0,0,1,19.32,18Z"/><ellipse class="cls-1" cx="177.86" cy="199.24" rx="14.32" ry="18.85"/><path class="cls-8" d="M177.86,178.92c8.7,0,15.78,9.12,15.78,20.31s-7.07,20.32-15.78,20.32-15.78-9.11-15.78-20.31S169.16,178.92,177.86,178.92Zm0,37.7c7.1,0,12.87-7.8,12.87-17.39s-5.77-17.38-12.87-17.38S165,189.65,165,199.24s5.77,17.39,12.86,17.39Z"/><ellipse class="cls-1" cx="222.85" cy="199.24" rx="14.32" ry="18.85"/><path class="cls-8" d="M222.85,178.92c8.7,0,15.78,9.12,15.78,20.31s-7.08,20.32-15.78,20.32-15.79-9.11-15.79-20.31S214.15,178.92,222.85,178.92Zm0,37.7c7.09,0,12.87-7.8,12.87-17.39s-5.78-17.38-12.87-17.38S210,189.65,210,199.24s5.78,17.39,12.87,17.39Z"/><ellipse class="cls-9" cx="174.55" cy="199.24" rx="7.41" ry="12.03"/><ellipse class="cls-9" cx="219.55" cy="199.24" rx="7.41" ry="12.03"/><path class="cls-1" d="M211.07,224c1.08-.32,2.15.18,2.22,1.06.53,5.34-3.93,10.9-10.71,12.94s-13.57-.15-16.07-4.9c-.43-.79.18-1.78,1.29-2.1Z"/><path class="cls-2" d="M46.36,213.49v4.19H31.44v-3.76a6.57,6.57,0,0,1,2.34-4,18.07,18.07,0,0,1,4-2.48,14.72,14.72,0,0,0,3-1.78A3.62,3.62,0,0,0,42.29,203a2.15,2.15,0,0,0-.23-1.08,3,3,0,0,0-1.59-1.48,4,4,0,0,0-2.1-.21,4.11,4.11,0,0,0-1.94.86,3,3,0,0,0-1,1.45l-.12.37h-4l.11-.62a6.9,6.9,0,0,1,2.39-4.22,8.14,8.14,0,0,1,3.83-1.72,8,8,0,0,1,4.21.43,7,7,0,0,1,3.65,3.39,6.14,6.14,0,0,1,.63,3A7.12,7.12,0,0,1,44,208.1a16.72,16.72,0,0,1-4.48,2.9A17.69,17.69,0,0,0,37,212.37a3.87,3.87,0,0,0-1.08,1.09Z"/><path class="cls-2" d="M69.2,203a11.5,11.5,0,0,0-1.75-3.5A6.86,6.86,0,0,0,58,197.31a6.79,6.79,0,0,0-2.23,2.23,13.64,13.64,0,0,0,0,15.3,6.87,6.87,0,0,0,11.67,0,12.61,12.61,0,0,0,2.34-7.65A14.26,14.26,0,0,0,69.2,203Zm-7.6,11a3.4,3.4,0,0,1-2.86-1.92,10,10,0,0,1,0-9.87,3.12,3.12,0,0,1,5.75,0,10,10,0,0,1,0,9.87A3.45,3.45,0,0,1,61.6,214Z"/><path class="cls-2" d="M351.47,213.74v4.33H336.05v-3.89a6.86,6.86,0,0,1,2.41-4.09,18.93,18.93,0,0,1,4.16-2.56,15.75,15.75,0,0,0,3.12-1.83,3.76,3.76,0,0,0,1.53-2.76,2.17,2.17,0,0,0-.24-1.11,3.07,3.07,0,0,0-1.64-1.53,4,4,0,0,0-2.17-.21,4.24,4.24,0,0,0-2,.9,3.05,3.05,0,0,0-1,1.5l-.12.39H336l.12-.65a7.09,7.09,0,0,1,2.46-4.36,8.35,8.35,0,0,1,4-1.78,8.08,8.08,0,0,1,4.35.43,7.14,7.14,0,0,1,3.76,3.5,6.23,6.23,0,0,1,.66,3.12,7.35,7.35,0,0,1-2.34,5.05,17.53,17.53,0,0,1-4.64,3,17.9,17.9,0,0,0-2.58,1.41,4,4,0,0,0-1.12,1.12Z"/><path class="cls-2" d="M366.74,196.42v21.65h-4.31V203.71l-.43.58-3.45-2.59,4-5.28Z"/><path class="cls-3" d="M125.9,324q2.56-2.06,4.6-3.41a5.93,5.93,0,0,1,3.09-1.29c.2-.33.07-.88-.37-1.66a9,9,0,0,0-1.9-2.24,8.26,8.26,0,0,0-2.78-1.62,3.54,3.54,0,0,0-3,.23,10.32,10.32,0,0,0-2.09,1.93c-1,1-2,2.28-3.22,3.71l-3.85,4.55q-2.06,2.41-4,4.45a40.1,40.1,0,0,1-3.58,3.4,5.26,5.26,0,0,1-2.69,1.43c-.09,0,0-.2.31-.63s.71-1,1.24-1.72,1.13-1.51,1.82-2.39,1.38-1.76,2.07-2.62,1.35-1.68,2-2.46l1.57-1.93a3,3,0,0,0,.67-2.18,6.21,6.21,0,0,0-.63-2.36,4.87,4.87,0,0,0-1.39-1.74,1.51,1.51,0,0,0-1.66-.26c-.6.28-1.42.72-2.45,1.32s-2.14,1.27-3.34,2-2.41,1.49-3.65,2.27-2.37,1.47-3.39,2.08-1.87,1.11-2.56,1.47-1.08.5-1.16.4.2-.64,1.12-1.35,2.1-1.61,3.56-2.68,3.05-2.27,4.79-3.6,3.35-2.69,4.86-4.09a29.25,29.25,0,0,0,3.75-4.17,6.39,6.39,0,0,0,1.47-3.83,5.69,5.69,0,0,0-1.34-3.69,8.67,8.67,0,0,0-3.43-2.46,15.09,15.09,0,0,0-4.84-1.09,19.45,19.45,0,0,0-5.63.45,22.14,22.14,0,0,0-5.71,2.16,19.34,19.34,0,0,0-5.11,4,3.18,3.18,0,0,0-1,2.18,5.4,5.4,0,0,0,.47,2.29,8.51,8.51,0,0,0,1.36,2.11,13.55,13.55,0,0,0,1.74,1.68,6.83,6.83,0,0,0,1.56,1c.45.19.73.21.83,0a18,18,0,0,1,2.54-3.71,25.52,25.52,0,0,1,3.19-3.07,24.78,24.78,0,0,1,3.34-2.31,17.1,17.1,0,0,1,3.07-1.4,5.75,5.75,0,0,1,2.28-.35,1.16,1.16,0,0,1,1.11.82,2.7,2.7,0,0,1-.89,2.19,20.05,20.05,0,0,1-2.94,2.63q-1.87,1.41-4.21,3t-4.6,3.17q-2.25,1.62-4.13,3.19a14.62,14.62,0,0,0-2.86,3,5.06,5.06,0,0,0-1,2.5,5.35,5.35,0,0,0,.33,2.21,6.29,6.29,0,0,0,1.13,1.82A7.48,7.48,0,0,0,92,328.67a6.7,6.7,0,0,0,1.53.75,1.39,1.39,0,0,0,1.07,0l1.43-.84c.72-.43,1.54-.92,2.45-1.48s1.86-1.14,2.84-1.76l2.68-1.69c.81-.5,1.46-.89,2-1.17s.72-.39.66-.32l-1,1.23c-.56.73-1.18,1.57-1.88,2.54s-1.38,1.93-2.07,2.92a18.74,18.74,0,0,0-1.49,2.39,3.45,3.45,0,0,0-.14,2.47,7,7,0,0,0,1.42,2.74,7.26,7.26,0,0,0,2.63,2,4.94,4.94,0,0,0,3.51.17,10.32,10.32,0,0,0,3-1.81c1.35-1,2.86-2.28,4.55-3.73l5.35-4.61Q123.34,326,125.9,324Z"/><path class="cls-3" d="M134.08,340.1a2.07,2.07,0,0,0-.7-.4.64.64,0,0,0-.67.15,22.22,22.22,0,0,1-2.71,2.21,20.16,20.16,0,0,1-2.69,1.6,10.82,10.82,0,0,1-2.39.85,2.88,2.88,0,0,1-1.65,0,1.22,1.22,0,0,1-.68-.74,3.29,3.29,0,0,1-.19-1.2,4.78,4.78,0,0,1,.2-1.34,5.86,5.86,0,0,1,.49-1.22,3.08,3.08,0,0,0,2,1.71,4.67,4.67,0,0,0,2.48-.12,7.5,7.5,0,0,0,2.39-1.31,9.53,9.53,0,0,0,1.76-1.8,5,5,0,0,0,1-3.68,4.61,4.61,0,0,0-1.64-2.86,6.38,6.38,0,0,0-3.39-1.35,7.06,7.06,0,0,0-4.13.86,14.77,14.77,0,0,0-2.63,1.82,14.25,14.25,0,0,0-3.89,5.29,7.63,7.63,0,0,0-.64,2.92,5.51,5.51,0,0,0,.58,2.84,5.64,5.64,0,0,0,1.7,1.95,6.71,6.71,0,0,0,2.39,1.05,7.11,7.11,0,0,0,2.68.11,11.91,11.91,0,0,0,2.69-.68,17,17,0,0,0,2.53-1.26,29.84,29.84,0,0,0,2.62-1.85c.9-.72,1.9-1.54,3-2.46.09-.1.08-.25,0-.47A1.87,1.87,0,0,0,134.08,340.1Zm-8.52-3.3a9.25,9.25,0,0,1,1.62-1.07,5.94,5.94,0,0,1,1.56-.57,2.71,2.71,0,0,1,1.21,0c.26.11.19.39-.22.86a8.13,8.13,0,0,1-1.61,1.36,8.41,8.41,0,0,1-2.13,1,1.75,1.75,0,0,1-1.76-.18A6.44,6.44,0,0,1,125.56,336.8Z"/><path class="cls-3" d="M141.52,330.26a4.57,4.57,0,0,0,1.45.54,3.71,3.71,0,0,0,1.82-.13,5.69,5.69,0,0,0,1.5-.71,9.49,9.49,0,0,0,1.36-1.08,8.78,8.78,0,0,0,1.11-1.27,7.29,7.29,0,0,0,.75-1.28,1.67,1.67,0,0,0,0-1.43,2.6,2.6,0,0,0-1-1.07,3.24,3.24,0,0,0-1.43-.51,2.19,2.19,0,0,0-1.43.3,5,5,0,0,0-1.42,1.11,16.28,16.28,0,0,0-1.3,1.58c-.4.55-.76,1.05-1.08,1.51a3.39,3.39,0,0,1-.84.9c-.33.2-.44.45-.33.74A1.74,1.74,0,0,0,141.52,330.26Z"/><path class="cls-3" d="M168.91,351.15a1.9,1.9,0,0,0-.78-.21.65.65,0,0,0-.61.31,23.18,23.18,0,0,1-2.07,2.81,19.26,19.26,0,0,1-2.23,2.21,10.37,10.37,0,0,1-2.1,1.42,2.82,2.82,0,0,1-1.6.38,1.22,1.22,0,0,1-.85-.54,3.68,3.68,0,0,1-.48-1.12,4.63,4.63,0,0,1-.13-1.35,5.84,5.84,0,0,1,.17-1.3,3.15,3.15,0,0,0,2.37,1.17,4.72,4.72,0,0,0,2.38-.74,7.4,7.4,0,0,0,2-1.86,9.28,9.28,0,0,0,1.27-2.17,5,5,0,0,0,.05-3.82A4.6,4.6,0,0,0,164,344a6.21,6.21,0,0,0-3.61-.47,7,7,0,0,0-3.79,1.85,14.87,14.87,0,0,0-2,2.24,2.33,2.33,0,0,0-.69-.08,1,1,0,0,0-.59.17,16.51,16.51,0,0,1-1.25,1.22c-.51.46-1.07.91-1.66,1.37s-1.21.91-1.83,1.35-1.19.79-1.71,1.08a5.8,5.8,0,0,1-1.35.58c-.39.1-.65.06-.79-.12s-.09-.67.34-1.19a15.48,15.48,0,0,1,1.77-1.74c.74-.64,1.55-1.34,2.43-2.08a26.46,26.46,0,0,0,2.33-2.22,8.56,8.56,0,0,0,1.5-2.14,1.81,1.81,0,0,0-.07-1.88,2.63,2.63,0,0,0-1.61-1.06,10.16,10.16,0,0,0-2.19-.32,17.94,17.94,0,0,0-2,0c-.56,0-.85,0-.86-.05a2,2,0,0,0-.29-.68c-.15-.27-.3-.55-.43-.83a1.39,1.39,0,0,0-.54-.54,3.22,3.22,0,0,0-.85-.37,2.85,2.85,0,0,0-.91-.12,1.94,1.94,0,0,0-.82.19,3,3,0,0,0-1,.9,7.55,7.55,0,0,0-.88,1.53,5.6,5.6,0,0,0-.47,1.71,2.21,2.21,0,0,0,.24,1.44,1.21,1.21,0,0,0,.83.57,11.79,11.79,0,0,0,1.19.19l1.15.1a1,1,0,0,1,.74.31c.07.09-.08.3-.44.62s-.81.71-1.33,1.14-1.06.92-1.63,1.44a10.07,10.07,0,0,0-1.34,1.46,5.77,5.77,0,0,0-1.14,2.46,4.26,4.26,0,0,0,.19,2.18,3.75,3.75,0,0,0,1.26,1.64,5.29,5.29,0,0,0,2,.92,6.64,6.64,0,0,0,2.52,0,8,8,0,0,0,2.77-1.09,37.29,37.29,0,0,0,4.49-3.3l.77-.7a14.78,14.78,0,0,0-.51,2.14,7.69,7.69,0,0,0,.1,3,5.44,5.44,0,0,0,1.27,2.6,5.56,5.56,0,0,0,2.12,1.47,6.7,6.7,0,0,0,2.58.43,7.1,7.1,0,0,0,2.62-.55,11.72,11.72,0,0,0,2.45-1.33,15.56,15.56,0,0,0,2.13-1.84,25.14,25.14,0,0,0,2.08-2.44c.7-.92,1.47-2,2.3-3.12.06-.12,0-.27-.13-.45A1.91,1.91,0,0,0,168.91,351.15Zm-9.07-1.09a9.6,9.6,0,0,1,1.3-1.44,5.58,5.58,0,0,1,1.38-.93,2.66,2.66,0,0,1,1.17-.3c.28,0,.28.33,0,.88a8.17,8.17,0,0,1-1.23,1.72,8.26,8.26,0,0,1-1.81,1.53,1.7,1.7,0,0,1-1.74.26A6.42,6.42,0,0,1,159.84,350.06Z"/><path class="cls-3" d="M225,349.91a1.32,1.32,0,0,0-.86.16,1.08,1.08,0,0,0-.51.83,24,24,0,0,1-.56,2.71c-.28,1.05-.59,2.05-.93,3a20.6,20.6,0,0,1-1,2.4c-.34.67-.64,1-.9,1s-.35-.27-.47-.81a14,14,0,0,1-.26-2.19c-.06-.92-.08-2-.06-3.16s0-2.43.1-3.74.14-2.62.24-3.95.23-2.6.38-3.81a17.74,17.74,0,0,0,2.41-.53,1.06,1.06,0,0,0,.65-.83,4.09,4.09,0,0,0,.14-1.49,3.69,3.69,0,0,0-.34-1.38.77.77,0,0,0-.85-.51c-.22,0-.44.06-.66.08l-.66.09a5.79,5.79,0,0,1,.63-2,.94.94,0,0,0-.27-1.39,4.44,4.44,0,0,0-2.05-.89,6.52,6.52,0,0,0-2.67,0,3.7,3.7,0,0,0-2.25,1.41,4.76,4.76,0,0,0-.56,1.5,18.62,18.62,0,0,0-.4,2.54l-3,.59a1.17,1.17,0,0,0-.87.86,3.34,3.34,0,0,0-.09,1.48,3.13,3.13,0,0,0,.56,1.35,1.07,1.07,0,0,0,1.08.47l2-.33c-.06,1.74-.07,3.56,0,5.48,0,1.05.06,2.07.12,3.08a.72.72,0,0,0-.19.11,1.44,1.44,0,0,0-.47.81l-.23.84a11.48,11.48,0,0,1-.4,1.16,5.28,5.28,0,0,1-.66,1.17,2.17,2.17,0,0,1-1,.8,15.07,15.07,0,0,0,.1-4.12,8.34,8.34,0,0,0-1.14-3.42,4.88,4.88,0,0,0-2.92-2.2,7.24,7.24,0,0,0-3.92-.06,7.78,7.78,0,0,0-3.58,2,6.49,6.49,0,0,0-1.9,4h0a1.68,1.68,0,0,0-.64.12,1.16,1.16,0,0,0-.65.58c-.33.74-.69,1.54-1.09,2.4s-.79,1.66-1.18,2.4a18.23,18.23,0,0,1-1.13,1.88c-.36.52-.67.8-.92.85s-.51-.06-.55-.41a4.53,4.53,0,0,1,.15-1.44c.15-.61.36-1.3.62-2.08s.55-1.56.85-2.37.58-1.57.84-2.3a16.62,16.62,0,0,0,.58-1.84,2.46,2.46,0,0,0-.28-2.12,2.91,2.91,0,0,0-1.62-1.12,4.41,4.41,0,0,0-2.17-.05,3.91,3.91,0,0,0-2,1,22.58,22.58,0,0,0-2.26,2.57,25,25,0,0,0-2.37,3.71c.4-.93.76-1.79,1.07-2.6s.59-1.61.83-2.41a1.77,1.77,0,0,0-.36-1.9,3.39,3.39,0,0,0-1.78-.86,4.54,4.54,0,0,0-2.1.14,2,2,0,0,0-1.36,1.06,12.06,12.06,0,0,0-.77,1.85c-.27.78-.53,1.62-.79,2.54s-.5,1.88-.73,2.88-.43,1.95-.57,2.86a23,23,0,0,0-.29,2.47,5.15,5.15,0,0,0,.14,1.74,3,3,0,0,0,1.07,1.65,3.23,3.23,0,0,0,1.71.74,2.42,2.42,0,0,0,1.73-.49,3.5,3.5,0,0,0,1.19-2,25,25,0,0,1,1.24-3.78,27.52,27.52,0,0,1,1.48-3.06,13.28,13.28,0,0,1,1.37-2.06q.65-.75.93-.78t-.12.87c-.25.61-.53,1.37-.87,2.3a22.26,22.26,0,0,0-.87,3.13,8.87,8.87,0,0,0-.08,3.36,3.44,3.44,0,0,0,1.05,2,3.79,3.79,0,0,0,2,.94,4.58,4.58,0,0,0,2.34-.27,5.6,5.6,0,0,0,2.23-1.58,13.66,13.66,0,0,0,1.34-1.89c.45-.75.9-1.54,1.32-2.39.19-.37.37-.74.55-1.11a13.29,13.29,0,0,0,.23,2.36,8.78,8.78,0,0,0,1.47,3.49,4.69,4.69,0,0,0,3.09,1.93,6,6,0,0,0,2.6,0,6.39,6.39,0,0,0,2.23-.94,8.25,8.25,0,0,0,1.83-1.67,14.14,14.14,0,0,0,1.45-2.17,6.1,6.1,0,0,0,2.44-1.73,13.06,13.06,0,0,0,1.69-2.47c.19-.38.36-.74.52-1.1.12,1.13.26,2.19.43,3.15a12.59,12.59,0,0,0,.88,3.14,3.31,3.31,0,0,0,1.65,1.72,3.81,3.81,0,0,0,2.21.29,4.89,4.89,0,0,0,2.22-1,6.2,6.2,0,0,0,1.77-2.26,32.54,32.54,0,0,0,1.9-4.94q.69-2.4,1.44-4.82a.77.77,0,0,0-.12-.87A1.35,1.35,0,0,0,225,349.91Zm-19.05,5a13.37,13.37,0,0,1-.53,2.42,2,2,0,0,0-1.08,1.72,2.4,2.4,0,0,0,.06.94,7.72,7.72,0,0,1-1,1.62c-.33.4-.65.56-.93.48a1.34,1.34,0,0,1-1-1.14,5.33,5.33,0,0,1,0-2.19,10.19,10.19,0,0,1,.78-2.53,8,8,0,0,1,1.42-2.19,1.12,1.12,0,0,0,.43-.71,1.09,1.09,0,0,0-.13-.63,1,1,0,0,0-.43-.4,1.06,1.06,0,0,0-.5-.11,1.88,1.88,0,0,1,1.53-.45,1.63,1.63,0,0,1,1.31,1.26A4.81,4.81,0,0,1,206,354.9Z"/><path class="cls-3" d="M285.7,322.88a.77.77,0,0,0-.49-.72,1.37,1.37,0,0,0-.85,0,1.26,1.26,0,0,0-.7.53,1.07,1.07,0,0,0-.09,1,22,22,0,0,1,.68,2.68c.22,1.06.38,2.09.49,3.08a23.38,23.38,0,0,1,.14,2.61c0,.74-.14,1.16-.38,1.26s-.44-.09-.78-.52a13.61,13.61,0,0,1-1.2-1.85c-.46-.8-.94-1.74-1.45-2.81s-1-2.2-1.55-3.4-1-2.41-1.53-3.65-.94-2.43-1.33-3.59a17.21,17.21,0,0,0,1.92-1.54,1,1,0,0,0,.23-1,4.43,4.43,0,0,0-.53-1.4,4,4,0,0,0-.92-1.09.77.77,0,0,0-1-.08c-.18.13-.37.25-.56.37a6.49,6.49,0,0,0-.55.36A5.43,5.43,0,0,1,275,311a1,1,0,0,0-.86-1.13,4.52,4.52,0,0,0-2.23.1,6.53,6.53,0,0,0-2.38,1.23,3.71,3.71,0,0,0-1.39,2.24,4.59,4.59,0,0,0,.15,1.61,20.6,20.6,0,0,0,.76,2.45l-1.8,1.38a2.08,2.08,0,0,0-1.24-.34,5.31,5.31,0,0,0-1.7.25,5.1,5.1,0,0,0-1.52.79,1.51,1.51,0,0,0-.66,1.23,7.24,7.24,0,0,0,.09.89,15.61,15.61,0,0,0,.35,1.62,11.34,11.34,0,0,0,.65,1.79,3.15,3.15,0,0,0,1,1.31,1.48,1.48,0,0,0,1.15.21,6.32,6.32,0,0,0,1.47-.36,5.35,5.35,0,0,0,1.26-.66,1.41,1.41,0,0,0,.63-.71,3.75,3.75,0,0,0-.05-1.39,5.12,5.12,0,0,0-.1-.54,1,1,0,0,0,.51-.2l1.66-1.18q1.07,2.39,2.38,4.93c.49.94,1,1.84,1.46,2.71a.86.86,0,0,1-.07.1,1.13,1.13,0,0,0-.08,1,18.89,18.89,0,0,1,.69,2.6c.21,1,.37,2,.49,2.9a15.61,15.61,0,0,1,.15,2.43c0,.69-.16,1.08-.41,1.16-.42.15-.82-.19-1.18-1a28.6,28.6,0,0,1-1.13-3c-.38-1.21-.78-2.47-1.19-3.79a20.57,20.57,0,0,0-1.33-3.32,1.53,1.53,0,0,0-1.37-.75,5.79,5.79,0,0,0-2.05.22,5,5,0,0,0-1.8.93,1.49,1.49,0,0,0-.67,1.3,13.9,13.9,0,0,0,.64,2.6c.22.7.48,1.43.78,2.18l0,0a1.5,1.5,0,0,0-.2,1.07,25.51,25.51,0,0,1,.13,3.1c0,1.11-.08,2.15-.18,3.1a14.8,14.8,0,0,1-.44,2.41c-.18.64-.37,1-.57,1s-.41-.19-.57-.7a12.32,12.32,0,0,1-.38-2c-.1-.8-.19-1.7-.28-2.69s-.2-2-.36-2.92a17.74,17.74,0,0,0-.61-2.62,4.26,4.26,0,0,0-1-1.79,3,3,0,0,0-2.62-1.07,4.92,4.92,0,0,0-2.53,1.31,9.73,9.73,0,0,0-2.06,2.78,12.43,12.43,0,0,0-1.19,3.36c-.22-1-.42-2.12-.6-3.43s-.31-2.6-.39-3.88a30.31,30.31,0,0,1,0-3.55,6,6,0,0,1,.51-2.41.67.67,0,0,0-.2-.9,3,3,0,0,0-1.32-.53,6.86,6.86,0,0,0-1.95-.07,8.37,8.37,0,0,0-2.07.43,4.48,4.48,0,0,0-1.7,1,2.41,2.41,0,0,0-.76,1.65,12.59,12.59,0,0,0,.23,3q.32,1.89.9,4.23t1.36,4.86c.34,1.11.69,2.19,1,3.26a1.48,1.48,0,0,0-.48.37,1.41,1.41,0,0,0-.31,1c0,.14-.07.4-.16.8s-.2.86-.33,1.41-.32,1.14-.53,1.81-.43,1.32-.65,2a7,7,0,0,0-.38-.7c-.14-.23-.31-.48-.5-.75a11.35,11.35,0,0,1-1.28-2.17,6.36,6.36,0,0,1-.47-1.65,3.09,3.09,0,0,1,.07-1.24c.1-.35.18-.67.26-1a1.53,1.53,0,0,0-.34-1.7,3.55,3.55,0,0,0-1.86-.81,8,8,0,0,0-2.62,0A9.35,9.35,0,0,0,236,341a5.57,5.57,0,0,0-1.95,1.49,2.39,2.39,0,0,0-.51,2.09v0c0,.52,0,1,0,1.53s0,1.15,0,1.74,0,1.1,0,1.53v0a14.59,14.59,0,0,0,.2,3.48,8.93,8.93,0,0,0,1.26,3.37,6.08,6.08,0,0,0,2.62,2.28,6.43,6.43,0,0,0,4.23.21,7,7,0,0,0,2.87-1.42,5.34,5.34,0,0,0,1.74-2.59c.29-.63.64-1.5,1-2.61s.77-2.26,1.11-3.43.55-2,.74-2.87c.4,1.07.79,2.09,1.19,3A32.22,32.22,0,0,0,251.9,352a3,3,0,0,0,1.8,1.58,3.23,3.23,0,0,0,2,0,3.15,3.15,0,0,0,1.52-1.11,1.71,1.71,0,0,0,.26-1.67,38.58,38.58,0,0,1-1.68-5.7,21.52,21.52,0,0,1-.46-3.84,5.53,5.53,0,0,1,.37-2.27,2.29,2.29,0,0,1,.82-1c.21-.14.38.14.5.83s.25,1.58.41,2.64.37,2.2.64,3.41a9.51,9.51,0,0,0,1.32,3.18,3.72,3.72,0,0,0,1.92,1.55,4.46,4.46,0,0,0,2.31.19,5.63,5.63,0,0,0,2.14-.85,3.39,3.39,0,0,0,1.34-1.55,12.14,12.14,0,0,0,.85-3.23,30.38,30.38,0,0,0,.25-3.53c0-.44,0-.86,0-1.28.15.26.31.52.47.78a14.48,14.48,0,0,0,2.53,3.11,3.52,3.52,0,0,0,2.14,1,3.61,3.61,0,0,0,2.08-.46,4.6,4.6,0,0,0,1.62-1.68,6.06,6.06,0,0,0,.77-2.69,14.67,14.67,0,0,0,0-2.66c-.09-.85-.2-1.68-.34-2.48,0-.12-.05-.24-.07-.37.33.5.66,1,1,1.41a12.71,12.71,0,0,0,2.17,2.44,3.42,3.42,0,0,0,2.24.82,3.8,3.8,0,0,0,2.11-.72,5,5,0,0,0,1.54-1.91,6.26,6.26,0,0,0,.59-2.81,32.07,32.07,0,0,0-.47-5.27C286.24,326.21,286,324.56,285.7,322.88Zm-44.94,31.65a1.78,1.78,0,0,1-1.37.3,4.13,4.13,0,0,1-1.81-.72,4.6,4.6,0,0,1-1.56-1.88c0-.65.09-1.37.11-2.16s0-1.56.06-2.33c.47.44,1,.9,1.47,1.38s1,1,1.44,1.42a12.38,12.38,0,0,1,1.19,1.41,5.44,5.44,0,0,1,.73,1.38A1,1,0,0,1,240.76,354.53Z"/><path class="cls-3" d="M295,327.54a6.3,6.3,0,0,0-.56-1,8.5,8.5,0,0,0-.64-.81,1.89,1.89,0,0,0-.52-.44A2.33,2.33,0,0,0,292,325a2.52,2.52,0,0,0-1.2.4,2.94,2.94,0,0,0-.88.91,2.39,2.39,0,0,0-.31,1.33,1.86,1.86,0,0,0,.23.77,7,7,0,0,0,.55.92,6,6,0,0,0,.71.86,2.89,2.89,0,0,0,.7.56,1.44,1.44,0,0,0,1.15.09,3.38,3.38,0,0,0,1.14-.63,4.59,4.59,0,0,0,.86-.92,1.21,1.21,0,0,0,.29-.77A2.72,2.72,0,0,0,295,327.54Z"/><path class="cls-3" d="M302.29,321a5.76,5.76,0,0,0-.63-1,6.82,6.82,0,0,0-.69-.78,1.89,1.89,0,0,0-.54-.4,2.36,2.36,0,0,0-1.28-.16,2.52,2.52,0,0,0-1.17.47,2.75,2.75,0,0,0-.82,1,2.26,2.26,0,0,0-.23,1.34,1.71,1.71,0,0,0,.27.75,6.73,6.73,0,0,0,.61.89,6.59,6.59,0,0,0,.76.82,3.05,3.05,0,0,0,.73.51,1.46,1.46,0,0,0,1.16,0,3.42,3.42,0,0,0,1.1-.7,4.47,4.47,0,0,0,.8-1,1.2,1.2,0,0,0,.24-.78A3.08,3.08,0,0,0,302.29,321Z"/><path class="cls-3" d="M309.18,314a5.85,5.85,0,0,0-.68-.93,8.4,8.4,0,0,0-.75-.73,1.68,1.68,0,0,0-.56-.37,2.37,2.37,0,0,0-1.29-.08,2.53,2.53,0,0,0-1.14.55,2.81,2.81,0,0,0-.76,1,2.27,2.27,0,0,0-.14,1.36,1.76,1.76,0,0,0,.32.73,6.11,6.11,0,0,0,.66.85,5.79,5.79,0,0,0,.81.76,2.89,2.89,0,0,0,.77.47,1.44,1.44,0,0,0,1.15,0,3.39,3.39,0,0,0,1.05-.77,4.38,4.38,0,0,0,.74-1,1.21,1.21,0,0,0,.2-.79A3.09,3.09,0,0,0,309.18,314Z"/><path class="cls-3" d="M316.06,307.59a2.88,2.88,0,0,0-.44-.95,5.77,5.77,0,0,0-.73-.89,7.56,7.56,0,0,0-.78-.68,2,2,0,0,0-.59-.34,2.51,2.51,0,0,0-2.39.62,2.82,2.82,0,0,0-.69,1,2.33,2.33,0,0,0-.07,1.37,1.77,1.77,0,0,0,.37.7,6.54,6.54,0,0,0,.71.81,5.62,5.62,0,0,0,.85.71,2.92,2.92,0,0,0,.79.42,1.45,1.45,0,0,0,1.15-.12,3.41,3.41,0,0,0,1-.83,4.67,4.67,0,0,0,.68-1.07A1.24,1.24,0,0,0,316.06,307.59Z"/></svg>