<svg xmlns="http://www.w3.org/2000/svg" width="402" height="402" viewBox="0 0 402 402"><g transform="translate(-96.638 -219.945)"><circle cx="200.673" cy="200.673" r="200.673" transform="translate(96.965 219.945)" fill="#fff"/><path d="M297.633,224.39c108.553,0,196.555,88,196.555,196.555S406.191,617.5,297.633,617.5s-196.55-88-196.55-196.555S189.067,224.39,297.633,224.39ZM479.151,420.945A181.514,181.514,0,1,0,297.633,602.458,181.515,181.515,0,0,0,479.151,420.945Z" fill="#ca9e67"/><path d="M297.638,219.945c110.832,0,201,90.168,201,201s-90.168,201-201,201-201-90.168-201-201S186.806,219.945,297.638,219.945Zm0,393.11c105.929,0,192.109-86.18,192.109-192.109s-86.179-192.11-192.109-192.11-192.109,86.18-192.109,192.109,86.18,192.11,192.109,192.11Z" fill="#733f14"/><path d="M297.638,235.327c102.35,0,185.617,83.268,185.617,185.617S399.988,606.562,297.638,606.562,112.021,523.294,112.021,420.944,195.289,235.327,297.638,235.327Zm0,363.027c97.824,0,177.41-79.586,177.41-177.41s-79.586-177.409-177.41-177.409S120.229,323.12,120.229,420.944s79.585,177.41,177.409,177.41Z" fill="#733f14"/><path d="M297.638,298.074A122.871,122.871,0,1,1,174.767,420.945h0A123.011,123.011,0,0,1,297.638,298.074Zm0,240.772a117.9,117.9,0,1,0-117.9-117.9A117.9,117.9,0,0,0,297.638,538.846Z" fill="#b17f4a"/><g style="isolation:isolate"><g style="isolation:isolate"><path d="M233.377,535.519a5.541,5.541,0,0,0-2.887,1.334q-1.889,1.359-4.247,3.408t-4.941,4.466q-2.582,2.415-4.909,4.573t-4.191,3.707a10.067,10.067,0,0,1-2.758,1.83,4.7,4.7,0,0,1-3.342-.035,6.943,6.943,0,0,1-2.568-1.791,6.65,6.65,0,0,1-1.449-2.551,3.262,3.262,0,0,1,.04-2.35,18.2,18.2,0,0,1,1.325-2.328q.93-1.441,1.866-2.849t1.692-2.474c.5-.71.792-1.111.866-1.208q.081-.106-.616.324t-1.815,1.19q-1.119.759-2.485,1.7t-2.635,1.782q-1.268.845-2.273,1.49t-1.331.854a1.313,1.313,0,0,1-1.007.022,6.08,6.08,0,0,1-1.484-.651,7.247,7.247,0,0,1-1.529-1.225,5.822,5.822,0,0,1-1.141-1.694,4.839,4.839,0,0,1-.391-2.082,4.728,4.728,0,0,1,.818-2.4,13.8,13.8,0,0,1,2.6-3q1.734-1.565,3.813-3.175t4.246-3.185q2.165-1.574,3.887-2.974a18.62,18.62,0,0,0,2.7-2.61,2.544,2.544,0,0,0,.762-2.109,1.09,1.09,0,0,0-1.078-.738,5.4,5.4,0,0,0-2.16.418,16.042,16.042,0,0,0-2.857,1.441,23.532,23.532,0,0,0-3.094,2.309,24.965,24.965,0,0,0-2.916,3.038,17.4,17.4,0,0,0-2.278,3.611q-.129.242-.787-.007a6.629,6.629,0,0,1-1.513-.873,12.536,12.536,0,0,1-1.715-1.536,7.872,7.872,0,0,1-1.369-1.952,5.05,5.05,0,0,1-.529-2.16,3.036,3.036,0,0,1,.842-2.1,18.59,18.59,0,0,1,4.7-3.968,21.127,21.127,0,0,1,5.348-2.254,18.32,18.32,0,0,1,5.325-.633,14.49,14.49,0,0,1,4.641.855,8.377,8.377,0,0,1,3.346,2.217,5.457,5.457,0,0,1,1.41,3.455,6.172,6.172,0,0,1-1.257,3.684,27.548,27.548,0,0,1-3.416,4.1q-2.067,2.072-4.465,4.065t-4.414,3.591q-2.019,1.6-3.287,2.671t-1.011,1.324c.077.1.437-.043,1.083-.418s1.441-.873,2.386-1.493,1.989-1.319,3.137-2.1,2.276-1.546,3.386-2.282,2.144-1.41,3.1-2.02,1.715-1.06,2.276-1.349a1.448,1.448,0,0,1,1.582.19,4.556,4.556,0,0,1,1.385,1.6,5.891,5.891,0,0,1,.682,2.219,2.831,2.831,0,0,1-.554,2.1q-.574.75-1.416,1.891l-1.781,2.406q-.939,1.266-1.873,2.562t-1.645,2.338q-.711,1.044-1.108,1.674c-.265.42-.356.625-.271.613a5.051,5.051,0,0,0,2.5-1.458,39.378,39.378,0,0,0,3.275-3.359q1.753-2,3.621-4.368t3.5-4.466q1.629-2.1,2.917-3.632a9.7,9.7,0,0,1,1.912-1.91,3.389,3.389,0,0,1,2.828-.33,7.966,7.966,0,0,1,2.7,1.438,8.418,8.418,0,0,1,1.88,2.06Q233.634,535.035,233.377,535.519Z" fill="#733f14"/></g></g><g style="isolation:isolate"><g style="isolation:isolate"><path d="M227.082,556.787a5.787,5.787,0,0,0-.4,1.121,4.4,4.4,0,0,0-.139,1.224,3.045,3.045,0,0,0,.217,1.084,1.1,1.1,0,0,0,.642.644,2.574,2.574,0,0,0,1.5-.039,9.561,9.561,0,0,0,2.134-.855,18.04,18.04,0,0,0,2.393-1.541,20.518,20.518,0,0,0,2.376-2.1.6.6,0,0,1,.6-.16,1.805,1.805,0,0,1,.649.337,1.674,1.674,0,0,1,.458.532c.1.192.11.332.035.423q-1.444,1.308-2.634,2.333a23.171,23.171,0,0,1-2.313,1.772,14.54,14.54,0,0,1-2.243,1.23,10.682,10.682,0,0,1-2.423.715,6.505,6.505,0,0,1-2.433-.006,6.027,6.027,0,0,1-2.2-.875,5.123,5.123,0,0,1-1.611-1.709,4.937,4.937,0,0,1-.629-2.551,6.982,6.982,0,0,1,.484-2.679,13.063,13.063,0,0,1,3.339-4.928,13.538,13.538,0,0,1,2.323-1.743,6.417,6.417,0,0,1,3.72-.924,5.69,5.69,0,0,1,3.119,1.1,4.226,4.226,0,0,1,1.592,2.536,4.559,4.559,0,0,1-.774,3.377,8.377,8.377,0,0,1-1.535,1.693,6.68,6.68,0,0,1-2.118,1.268,4.207,4.207,0,0,1-2.247.2A2.831,2.831,0,0,1,227.082,556.787Zm6.055-4.618a2.381,2.381,0,0,0-1.1.043,5.123,5.123,0,0,0-1.4.566,8.808,8.808,0,0,0-1.43,1.03,5.822,5.822,0,0,0-1.154,1.351,1.566,1.566,0,0,0,1.6.1,8.141,8.141,0,0,0,3.315-2.313Q233.5,552.3,233.137,552.169Z" fill="#733f14"/></g></g><g style="isolation:isolate"><g style="isolation:isolate"><path d="M251.8,542.439a5.975,5.975,0,0,1-.574,1.073,7.417,7.417,0,0,1-.87,1.08,7.818,7.818,0,0,1-1.084.932,4.615,4.615,0,0,1-1.217.63,2.969,2.969,0,0,1-1.491.161,3.543,3.543,0,0,1-1.206-.4,1.415,1.415,0,0,1-.649-.635c-.1-.236-.021-.442.245-.616a2.657,2.657,0,0,0,.661-.765q.378-.584.845-1.28a14.316,14.316,0,0,1,1.014-1.339,3.992,3.992,0,0,1,1.135-.954,1.809,1.809,0,0,1,1.166-.292,2.727,2.727,0,0,1,1.2.371,2.1,2.1,0,0,1,.816.849A1.374,1.374,0,0,1,251.8,542.439Z" fill="#733f14"/></g></g><g style="isolation:isolate"><g style="isolation:isolate"><path d="M248.86,560.7a.865.865,0,0,0-.67-.25c-.32-.01-.658-.026-1.018-.049a8.815,8.815,0,0,1-1.059-.128,1.051,1.051,0,0,1-.755-.472,1.961,1.961,0,0,1-.269-1.27,5.349,5.349,0,0,1,.362-1.537,6.7,6.7,0,0,1,.731-1.378,2.63,2.63,0,0,1,.851-.837,1.772,1.772,0,0,1,.719-.2,2.58,2.58,0,0,1,.812.073,3.26,3.26,0,0,1,.765.3,1.206,1.206,0,0,1,.5.459q.193.367.415.723a2.162,2.162,0,0,1,.28.59c.009.062.265.068.764.014s1.078-.077,1.738-.08a9.15,9.15,0,0,1,1.958.206,2.347,2.347,0,0,1,1.463.889,1.61,1.61,0,0,1,.125,1.665,7.746,7.746,0,0,1-1.256,1.942,23.024,23.024,0,0,1-1.99,2.047q-1.133,1.035-2.087,1.93a13.9,13.9,0,0,0-1.5,1.6q-.547.712-.261,1.064c.128.157.361.184.7.083a5.254,5.254,0,0,0,1.183-.56,17.431,17.431,0,0,0,1.478-1.017q.8-.612,1.57-1.253t1.425-1.276q.655-.635,1.07-1.122a.827.827,0,0,1,.514-.171,1.964,1.964,0,0,1,.765.081,1.62,1.62,0,0,1,.606.318q.223.2.005.484a23.332,23.332,0,0,1-3.125,3.523,32.4,32.4,0,0,1-3.867,3.074,6.875,6.875,0,0,1-2.413,1.059,5.9,5.9,0,0,1-2.237.06,4.624,4.624,0,0,1-1.838-.741,3.271,3.271,0,0,1-1.168-1.413,3.653,3.653,0,0,1-.246-1.921,5.076,5.076,0,0,1,.924-2.221,8.792,8.792,0,0,1,1.138-1.342q.726-.72,1.4-1.328t1.137-1.056C248.8,560.97,248.923,560.781,248.86,560.7Z" fill="#733f14"/></g></g><g style="isolation:isolate"><g style="isolation:isolate"><path d="M263.122,569.5a5.9,5.9,0,0,0-.11,1.184,4.377,4.377,0,0,0,.169,1.219,3.007,3.007,0,0,0,.476,1,1.1,1.1,0,0,0,.782.468,2.581,2.581,0,0,0,1.444-.408,9.542,9.542,0,0,0,1.856-1.355,18.2,18.2,0,0,0,1.94-2.084,20.526,20.526,0,0,0,1.785-2.62.6.6,0,0,1,.546-.3,1.8,1.8,0,0,1,.711.168,1.63,1.63,0,0,1,.576.4c.143.16.188.294.139.4q-1.078,1.623-1.978,2.911a23.141,23.141,0,0,1-1.8,2.287,14.5,14.5,0,0,1-1.871,1.746,10.64,10.64,0,0,1-2.172,1.29,6.467,6.467,0,0,1-2.359.594,6.066,6.066,0,0,1-2.352-.3,5.113,5.113,0,0,1-1.981-1.26,4.944,4.944,0,0,1-1.239-2.316,6.971,6.971,0,0,1-.191-2.716,12.877,12.877,0,0,1,.677-2.89,13.054,13.054,0,0,1,1.343-2.71,13.669,13.669,0,0,1,1.822-2.261,6.426,6.426,0,0,1,3.376-1.813,5.685,5.685,0,0,1,3.3.3,4.222,4.222,0,0,1,2.168,2.066,4.557,4.557,0,0,1,.083,3.462,8.374,8.374,0,0,1-1.07,2.02,6.712,6.712,0,0,1-1.74,1.752,4.241,4.241,0,0,1-2.128.751A2.842,2.842,0,0,1,263.122,569.5Zm4.73-5.97a2.39,2.39,0,0,0-1.051.313,5.189,5.189,0,0,0-1.215.892,8.8,8.8,0,0,0-1.131,1.35,5.875,5.875,0,0,0-.786,1.6,1.57,1.57,0,0,0,1.574-.294,7.685,7.685,0,0,0,1.591-1.452,7.572,7.572,0,0,0,1.052-1.607C268.121,563.817,268.11,563.553,267.852,563.528Z" fill="#733f14"/></g></g><g style="isolation:isolate"><g style="isolation:isolate"><path d="M297.861,566.528a18.124,18.124,0,0,1-.484,1.769q-.336,1.051-.718,2.214t-.719,2.282q-.338,1.119-.511,1.993a4.044,4.044,0,0,0-.094,1.37c.054.331.231.455.533.371.241-.056.525-.335.849-.839a17.065,17.065,0,0,0,1-1.826q.514-1.07,1.034-2.32t.945-2.322a1.116,1.116,0,0,1,.6-.574,1.439,1.439,0,0,1,.767-.121.885.885,0,0,1,.58.327.746.746,0,0,1,.03.765q-.381,1.117-.878,2.368t-1.06,2.479q-.566,1.226-1.17,2.317a13.426,13.426,0,0,1-1.206,1.845,5.376,5.376,0,0,1-2.055,1.58,4.325,4.325,0,0,1-2.212.341,3.571,3.571,0,0,1-1.9-.823,3.222,3.222,0,0,1-1.067-1.868,8.39,8.39,0,0,1-.051-3.2,21.6,21.6,0,0,1,.71-3q.43-1.341.74-2.213c.206-.581.234-.857.083-.831-.18.028-.463.283-.847.772a12.511,12.511,0,0,0-1.231,2,28.3,28.3,0,0,0-1.3,2.968,24,24,0,0,0-1.037,3.626,3.307,3.307,0,0,1-1.051,1.983,2.312,2.312,0,0,1-1.63.53,3.1,3.1,0,0,1-1.654-.639,2.951,2.951,0,0,1-1.072-1.528,4.713,4.713,0,0,1-.194-1.647,22.906,22.906,0,0,1,.18-2.359q.16-1.3.435-2.737t.593-2.757q.318-1.32.654-2.44a12.171,12.171,0,0,1,.665-1.788,1.923,1.923,0,0,1,1.258-1.055,4.224,4.224,0,0,1,1.985-.209,3.154,3.154,0,0,1,1.718.753,1.658,1.658,0,0,1,.416,1.785q-.293,1.164-.7,2.327t-.925,2.5A23.653,23.653,0,0,1,290,567.1a21.713,21.713,0,0,1,2.051-2.527,3.774,3.774,0,0,1,1.82-1.021,4.218,4.218,0,0,1,2.071-.029,2.815,2.815,0,0,1,1.579,1A2.368,2.368,0,0,1,297.861,566.528Z" fill="#733f14"/></g></g><g style="isolation:isolate"><g style="isolation:isolate"><path d="M313.311,564.541a7.7,7.7,0,0,1,1.154,3.081,13.538,13.538,0,0,1,.055,3.755,2,2,0,0,0,.9-.76,5.108,5.108,0,0,0,.56-1.1,10.1,10.1,0,0,0,.323-1.069c.081-.339.14-.6.181-.775a1.287,1.287,0,0,1,.4-.753.831.831,0,0,1,.562-.208.776.776,0,0,1,.5.209.742.742,0,0,1,.21.584,9.96,9.96,0,0,1-.287,1.649,12.041,12.041,0,0,1-2.28,4.6,5.616,5.616,0,0,1-2.165,1.667,12.708,12.708,0,0,1-1.243,2.026,7.581,7.581,0,0,1-1.611,1.59,5.976,5.976,0,0,1-2,.937,5.635,5.635,0,0,1-2.371.066,4.33,4.33,0,0,1-2.889-1.653,8.143,8.143,0,0,1-1.462-3.136,12.054,12.054,0,0,1-.282-3.646,10.8,10.8,0,0,1,.651-3.177,5.942,5.942,0,0,1,1.588-3.748,7.2,7.2,0,0,1,3.194-1.964,6.69,6.69,0,0,1,3.579-.082A4.485,4.485,0,0,1,313.311,564.541Zm-3.97,9.044a1.775,1.775,0,0,1,.918-1.605,12.128,12.128,0,0,0,.4-2.224,4.205,4.205,0,0,0-.153-1.735,1.486,1.486,0,0,0-1.237-1.106,1.694,1.694,0,0,0-1.378.463.946.946,0,0,1,.461.084.856.856,0,0,1,.4.349.99.99,0,0,1,.143.567,1,1,0,0,1-.365.665,7.318,7.318,0,0,0-1.22,2.046,9.35,9.35,0,0,0-.629,2.333,5.133,5.133,0,0,0,.094,2,1.248,1.248,0,0,0,.945,1.008c.266.058.545-.1.838-.474a7.314,7.314,0,0,0,.863-1.514A2.138,2.138,0,0,1,309.341,573.585Z" fill="#733f14"/></g></g><g style="isolation:isolate"><g style="isolation:isolate"><path d="M318.361,553.514a16.814,16.814,0,0,1,.261-2.209,4,4,0,0,1,.441-1.326,3.192,3.192,0,0,1,1.893-1.284,5.674,5.674,0,0,1,2.315-.138,3.919,3.919,0,0,1,1.8.7.826.826,0,0,1,.287,1.2,4.827,4.827,0,0,0-.485,1.73c.188-.039.377-.07.568-.095s.378-.056.566-.1a.66.66,0,0,1,.754.411,3.293,3.293,0,0,1,.346,1.185,3.767,3.767,0,0,1-.072,1.291q-.147.617-.54.738a14.739,14.739,0,0,1-2.064.546q-.138,1.578-.2,3.307t-.075,3.425q-.009,1.7.033,3.237t.159,2.729a12.51,12.51,0,0,0,.3,1.883c.122.465.266.692.433.688q.338.013.744-.865a18.782,18.782,0,0,0,.8-2.109q.4-1.231.7-2.611a19.992,19.992,0,0,0,.4-2.364.936.936,0,0,1,.416-.732,1.114,1.114,0,0,1,.739-.172,1.18,1.18,0,0,1,.668.3.67.67,0,0,1,.132.746q-.571,2.125-1.085,4.218a27.954,27.954,0,0,1-1.479,4.339,5.409,5.409,0,0,1-1.452,2.012,4.236,4.236,0,0,1-1.893.972,3.286,3.286,0,0,1-1.918-.173,2.9,2.9,0,0,1-1.486-1.434,11.1,11.1,0,0,1-.863-2.69q-.384-1.782-.658-4.049t-.425-4.747q-.151-2.48-.151-4.738l-1.728.352a.92.92,0,0,1-.954-.371,2.62,2.62,0,0,1-.527-1.148,2.743,2.743,0,0,1,.031-1.282,1,1,0,0,1,.721-.775Z" fill="#733f14"/></g></g><g style="isolation:isolate"><g style="isolation:isolate"><path d="M339.23,562.8q-.035-.585-.035-1.387c0-.535,0-1.062-.013-1.578q0-.87-.02-1.781l2.4.3c.036-.073.067.175.094.747s.049,1.282.061,2.132q-.955-.836-1.7-1.546a2.645,2.645,0,0,1-.859-1.264,2.188,2.188,0,0,1,.389-1.911,5,5,0,0,1,1.72-1.419,8.623,8.623,0,0,1,2.36-.809,7.338,7.338,0,0,1,2.371-.1,3.339,3.339,0,0,1,1.717.669,1.383,1.383,0,0,1,.365,1.539c-.053.265-.121.557-.2.878a2.814,2.814,0,0,0-.018,1.129,5.944,5.944,0,0,0,.481,1.474,9.861,9.861,0,0,0,1.242,1.924c.181.237.34.462.478.67a6.688,6.688,0,0,1,.369.62c.178-.586.354-1.188.524-1.8s.307-1.17.412-1.669.189-.926.254-1.286.1-.6.119-.733a1.262,1.262,0,0,1,.248-.872,1.24,1.24,0,0,1,.6-.429,1.006,1.006,0,0,1,.646.013.642.642,0,0,1,.412.488,6.37,6.37,0,0,1-.127,1.882q-.225,1.37-.632,2.988T352,564.821c-.324,1.023-.605,1.824-.85,2.4a4.876,4.876,0,0,1-1.488,2.411,6.332,6.332,0,0,1-2.558,1.387,5.835,5.835,0,0,1-3.844-.038,5.508,5.508,0,0,1-2.457-1.977,8.268,8.268,0,0,1-1.26-3.018,12.741,12.741,0,0,1-.3-3.145Zm7.067,3.336a4.715,4.715,0,0,0-.709-1.228,11.278,11.278,0,0,0-1.123-1.233c-.428-.408-.879-.821-1.358-1.241s-.939-.82-1.386-1.2c.013.7.025,1.407.031,2.122s0,1.371-.027,1.96a4.163,4.163,0,0,0,1.484,1.65,3.764,3.764,0,0,0,1.668.6,1.673,1.673,0,0,0,1.232-.322A.893.893,0,0,0,346.3,566.14Z" fill="#733f14"/></g></g><g style="isolation:isolate"><g style="isolation:isolate"><path d="M349.578,541.385a2.091,2.091,0,0,1,.609-1.448,3.916,3.916,0,0,1,1.433-.932,7.592,7.592,0,0,1,1.781-.442,6.065,6.065,0,0,1,1.688,0,2.685,2.685,0,0,1,1.162.412.577.577,0,0,1,.2.776,5.178,5.178,0,0,0-.359,2.106,26.682,26.682,0,0,0,.142,3.07q.165,1.645.468,3.339t.635,2.952a10.643,10.643,0,0,1,.915-2.949,8.478,8.478,0,0,1,1.692-2.478,4.228,4.228,0,0,1,2.144-1.209,2.61,2.61,0,0,1,2.307.833,3.828,3.828,0,0,1,.9,1.517,15.952,15.952,0,0,1,.614,2.244q.25,1.234.409,2.516t.332,2.324a10.694,10.694,0,0,0,.395,1.69q.221.648.514.587c.17-.026.325-.322.462-.887a12.948,12.948,0,0,0,.295-2.1q.09-1.248.057-2.688a21.536,21.536,0,0,0-.219-2.683,1.3,1.3,0,0,1,.141-.929.938.938,0,0,1,.553-.4,1,1,0,0,1,.624.045.556.556,0,0,1,.355.416q.2.824.384,2.113a24.366,24.366,0,0,1,.228,2.793,25.743,25.743,0,0,1-.1,3.054,10.394,10.394,0,0,1-.632,2.827,2.92,2.92,0,0,1-1.105,1.384,4.921,4.921,0,0,1-1.82.81,3.966,3.966,0,0,1-2.011-.087,3.2,3.2,0,0,1-1.708-1.282,8.226,8.226,0,0,1-1.246-2.7q-.42-1.56-.672-2.933t-.441-2.267q-.189-.9-.461-.707a2,2,0,0,0-.672.927,4.769,4.769,0,0,0-.243,1.976,18.1,18.1,0,0,0,.522,3.31,33.842,33.842,0,0,0,1.64,4.88,1.459,1.459,0,0,1-.168,1.451,2.807,2.807,0,0,1-1.276,1.013,2.856,2.856,0,0,1-1.75.1,2.621,2.621,0,0,1-1.609-1.313,28.306,28.306,0,0,1-1.411-2.709q-.788-1.692-1.593-3.725t-1.554-4.182q-.752-2.152-1.334-4.159T349.878,544A11.3,11.3,0,0,1,349.578,541.385Z" fill="#733f14"/></g></g><g style="isolation:isolate"><g style="isolation:isolate"><path d="M373.876,537.159a1.263,1.263,0,0,1-.526.651,4.949,4.949,0,0,1-1.1.626,5.758,5.758,0,0,1-1.289.374,1.377,1.377,0,0,1-1.03-.149,2.787,2.787,0,0,1-.922-1.127,10.6,10.6,0,0,1-.637-1.569,12.041,12.041,0,0,1-.361-1.423,6.128,6.128,0,0,1-.115-.781,1.363,1.363,0,0,1,.546-1.116,4.313,4.313,0,0,1,1.319-.749,4.726,4.726,0,0,1,1.5-.286,1.826,1.826,0,0,1,1.14.279,3.2,3.2,0,0,1,.435.845c.188.464.368.975.536,1.535s.31,1.113.42,1.661A3.345,3.345,0,0,1,373.876,537.159Zm1.715,2.9a17.926,17.926,0,0,1,1.289,2.9q.618,1.731,1.188,3.318a25.69,25.69,0,0,0,1.1,2.648q.527,1.064,1.086.843.327-.114.319-1.042a14.034,14.034,0,0,0-.215-2.15q-.2-1.224-.527-2.548a17.5,17.5,0,0,0-.7-2.279.992.992,0,0,1,.037-.856,1.255,1.255,0,0,1,.579-.534.925.925,0,0,1,.734-.033.792.792,0,0,1,.482.614c.152.737.321,1.45.506,2.132s.349,1.38.5,2.088.278,1.437.39,2.186a13.439,13.439,0,0,1,.125,2.359,5.313,5.313,0,0,1-.6,2.41,4.053,4.053,0,0,1-1.374,1.538,3.073,3.073,0,0,1-3.762-.355,12.888,12.888,0,0,1-2.351-2.676,27.178,27.178,0,0,1-1.94-3.35,33,33,0,0,1-1.376-3.221,12.932,12.932,0,0,1-.655-2.284,1.318,1.318,0,0,1,.556-1.175,4.339,4.339,0,0,1,1.559-.881,5.193,5.193,0,0,1,1.812-.268A1.37,1.37,0,0,1,375.591,540.054Z" fill="#733f14"/></g></g><g style="isolation:isolate"><g style="isolation:isolate"><path d="M374.37,529.732a16.533,16.533,0,0,1-.738-2.1,3.966,3.966,0,0,1-.188-1.383,3.192,3.192,0,0,1,1.133-1.988,5.752,5.752,0,0,1,2.018-1.145,3.964,3.964,0,0,1,1.921-.162q.855.17.784.949a4.834,4.834,0,0,0,.328,1.768c.151-.117.308-.229.467-.335s.315-.218.467-.335a.657.657,0,0,1,.857.038,3.272,3.272,0,0,1,.833.91,3.773,3.773,0,0,1,.5,1.191.9.9,0,0,1-.159.9,15.08,15.08,0,0,1-1.614,1.4q.57,1.477,1.273,3.058t1.442,3.108q.739,1.528,1.455,2.891t1.345,2.381a12.409,12.409,0,0,0,1.1,1.558c.313.363.544.5.69.426q.311-.137.289-1.1a18.763,18.763,0,0,0-.209-2.248q-.184-1.281-.519-2.655a20.089,20.089,0,0,0-.686-2.295.933.933,0,0,1,.051-.84,1.109,1.109,0,0,1,.588-.481,1.175,1.175,0,0,1,.734-.021.665.665,0,0,1,.445.612q.426,2.159.885,4.264a27.868,27.868,0,0,1,.584,4.547,5.461,5.461,0,0,1-.416,2.447,4.254,4.254,0,0,1-1.273,1.706,3.278,3.278,0,0,1-1.8.689,2.892,2.892,0,0,1-1.964-.633,11.09,11.09,0,0,1-1.96-2.035q-1.13-1.431-2.375-3.344t-2.473-4.075q-1.227-2.16-2.222-4.188l-1.4,1.077a.92.92,0,0,1-1.02.088,2.633,2.633,0,0,1-.979-.8,2.752,2.752,0,0,1-.537-1.165,1.008,1.008,0,0,1,.307-1.014Z" fill="#733f14"/></g></g><g style="isolation:isolate"><g style="isolation:isolate"><path d="M391.359,534.146a1.793,1.793,0,0,1,.2-1.021,2.186,2.186,0,0,1,.64-.715,1.932,1.932,0,0,1,.9-.343,1.843,1.843,0,0,1,.972.146,1.433,1.433,0,0,1,.4.316,6.121,6.121,0,0,1,.512.6,4.352,4.352,0,0,1,.454.753,2.242,2.242,0,0,1,.224.764.922.922,0,0,1-.2.587,3.361,3.361,0,0,1-.628.73,2.594,2.594,0,0,1-.846.511,1.089,1.089,0,0,1-.878-.038,2.218,2.218,0,0,1-.55-.4,4.813,4.813,0,0,1-.562-.631,5.43,5.43,0,0,1-.444-.689A1.467,1.467,0,0,1,391.359,534.146Z" fill="#733f14"/></g></g><g style="isolation:isolate"><g style="isolation:isolate"><path d="M398.291,527.872a1.773,1.773,0,0,1,.136-1.031,2.129,2.129,0,0,1,.594-.754,1.937,1.937,0,0,1,.876-.4,1.869,1.869,0,0,1,.981.085,1.445,1.445,0,0,1,.421.291,6.2,6.2,0,0,1,.55.571,4.433,4.433,0,0,1,.5.723,2.242,2.242,0,0,1,.27.749.915.915,0,0,1-.163.6,3.4,3.4,0,0,1-.582.766,2.614,2.614,0,0,1-.811.563,1.09,1.09,0,0,1-.879.016,2.228,2.228,0,0,1-.575-.366,4.894,4.894,0,0,1-.6-.6,5.544,5.544,0,0,1-.487-.659A1.454,1.454,0,0,1,398.291,527.872Z" fill="#733f14"/></g></g><g style="isolation:isolate"><g style="isolation:isolate"><path d="M404.816,521.166a1.8,1.8,0,0,1,.071-1.037,2.163,2.163,0,0,1,.547-.789,1.923,1.923,0,0,1,.849-.453,1.853,1.853,0,0,1,.985.023,1.428,1.428,0,0,1,.439.264,5.89,5.89,0,0,1,.584.535,4.248,4.248,0,0,1,.543.69,2.225,2.225,0,0,1,.318.732.926.926,0,0,1-.125.607,3.424,3.424,0,0,1-.533.8,2.573,2.573,0,0,1-.775.613,1.087,1.087,0,0,1-.875.073,2.2,2.2,0,0,1-.6-.33,4.825,4.825,0,0,1-.637-.557,5.188,5.188,0,0,1-.527-.627A1.5,1.5,0,0,1,404.816,521.166Z" fill="#733f14"/></g></g><g style="isolation:isolate"><g style="isolation:isolate"><path d="M410.938,514.033a1.8,1.8,0,0,1,.007-1.041,2.179,2.179,0,0,1,.5-.82,1.929,1.929,0,0,1,.822-.5,1.841,1.841,0,0,1,.983-.036,1.356,1.356,0,0,1,.453.236,5.956,5.956,0,0,1,.616.5,4.375,4.375,0,0,1,.585.656,2.233,2.233,0,0,1,.361.711.92.92,0,0,1-.088.615,3.405,3.405,0,0,1-.484.832,2.591,2.591,0,0,1-.736.659,1.1,1.1,0,0,1-.869.125,2.22,2.22,0,0,1-.615-.293,5.074,5.074,0,0,1-.67-.518,5.436,5.436,0,0,1-.564-.593A1.443,1.443,0,0,1,410.938,514.033Z" fill="#733f14"/></g></g><path d="M184.034,345.992v-.03a8.842,8.842,0,0,0-10.848-6.222l-.027.007c-.163.047-.326.094-.49.15a8.244,8.244,0,0,0-3.72-4.007,8.382,8.382,0,0,0-6.047-.683,7.985,7.985,0,0,0-5.017,3.866l-6.442,11.236,24.941,14.29,6.8-11.863a8.584,8.584,0,0,0,.846-6.748Zm-24.886,2.285,3.659-6.361a2.4,2.4,0,0,1,1.555-1.194,2.749,2.749,0,0,1,2.032.241,2.7,2.7,0,0,1,1.216,1.6,2.466,2.466,0,0,1-.241,1.967l-3.642,6.365Zm19.134,1.645-4.024,7.027-5.584-3.213,4.02-7.014a3.143,3.143,0,0,1,1.92-1.512,3.212,3.212,0,0,1,3.976,2.2l.018.064a3.074,3.074,0,0,1-.325,2.449Z" fill="#733f14"/><path d="M201.72,328.412l4.475-4.965-10.372-1.589a10.681,10.681,0,0,0,.356-3.367,10.865,10.865,0,0,0-3.466-7.25,10.986,10.986,0,0,0-7.6-2.7,10.241,10.241,0,0,0-7.3,3.47l-8.032,8.912,21.355,19.25,3.754-4.166-5.669-5.107,3.483-3.866Zm-24.009-7.877,4.3-4.746a4.666,4.666,0,0,1,3.367-1.606h.043a4.875,4.875,0,0,1,5.151,4.583l0,.06a4.7,4.7,0,0,1-1.246,3.543l-4.3,4.75Z" fill="#733f14"/><path d="M226.941,290.508a14.425,14.425,0,0,0-9.565-6.271,14.967,14.967,0,0,0-5.584,29.408,15.828,15.828,0,0,0,2.946.283,14.973,14.973,0,0,0,12.194-23.421Zm-3.2,10.175a9.325,9.325,0,1,1-1.465-6.992,8.88,8.88,0,0,1,1.466,6.989Z" fill="#733f14"/><path d="M272.306,259.459l-1.327,30.4-5.734,1.714L254.483,276.6l-.807,18.421-5.734,1.714-17.779-24.7,5.674-1.7L248.4,287.777l.928-21.467,3.8-1.138L265.7,282.61l.928-21.467Z" fill="#733f14"/><path d="M304.3,287.635l-13.113-18.194.3,18.4-5.584.09-.468-28.747,5.18-.082,12.954,17.958-.3-18.164,5.6-.09.468,28.743Z" fill="#733f14"/><path d="M354.831,269.364l-5.584-1.993-19.572,23.546,5.622,2.006,3.492-4.218,10.643,3.793.034,5.476,5.622,2.006Zm-5.45,17.18-6.786-2.418,6.7-8.058Z" fill="#733f14"/><path d="M390.253,291.625a10.237,10.237,0,0,0-4.609-6.653l-10.1-6.481-15.533,24.19,4.724,3.032,4.119-6.421,4.377,2.809.107,9.136,5.627,3.612-.112-10.5a10.546,10.546,0,0,0,3.38-.189,10.845,10.845,0,0,0,6.593-4.6A10.957,10.957,0,0,0,390.253,291.625Zm-6.189,4.888a5.021,5.021,0,0,1-3.088,2.148,4.7,4.7,0,0,1-3.7-.657l-5.382-3.436,5.313-8.272,5.382,3.436a4.7,4.7,0,0,1,2.148,3.062,5.045,5.045,0,0,1-.674,3.719Z" fill="#733f14"/><path d="M424.775,319.564,404,339.442l-3.861-4.033,10.793-10.33-15.625,5.279-2.869-3L398.408,312,387.623,322.32l-3.861-4.033,20.771-19.878,3.659,3.823L400.221,322.8l20.882-7.074Z" fill="#733f14"/><path d="M444.2,350.871l-18.319-.442-11.352,6.537-2.787-4.841,11.347-6.537,8.8-16.072,3.26,5.661-5.339,9.758,11.111.258Z" fill="#733f14"/><path d="M143,433.43v4.192H128.078v-3.763a6.636,6.636,0,0,1,2.337-3.96,17.992,17.992,0,0,1,4.024-2.474,14.876,14.876,0,0,0,3.007-1.778,3.611,3.611,0,0,0,1.482-2.663,2.209,2.209,0,0,0-.228-1.078,3,3,0,0,0-1.593-1.482,3.869,3.869,0,0,0-2.1-.206,4.04,4.04,0,0,0-1.937.859,2.97,2.97,0,0,0-.958,1.447l-.12.374h-3.953l.112-.627a6.87,6.87,0,0,1,2.388-4.218,8.061,8.061,0,0,1,3.831-1.718,7.9,7.9,0,0,1,4.209.43,6.988,6.988,0,0,1,3.646,3.389,6.133,6.133,0,0,1,.631,3.006,7.138,7.138,0,0,1-2.264,4.888,16.852,16.852,0,0,1-4.488,2.9,16.809,16.809,0,0,0-2.483,1.37,3.729,3.729,0,0,0-1.087,1.087Z" fill="#ca9e67"/><path d="M165.836,422.985a11.413,11.413,0,0,0-1.752-3.5,6.855,6.855,0,0,0-11.665,0,13.641,13.641,0,0,0,0,15.3,6.853,6.853,0,0,0,11.665,0,12.537,12.537,0,0,0,2.345-7.645,14.042,14.042,0,0,0-.593-4.149Zm-7.594,11a3.423,3.423,0,0,1-2.869-1.916,10.036,10.036,0,0,1,0-9.879,3.119,3.119,0,0,1,5.751,0,10.006,10.006,0,0,1,0,9.879,3.446,3.446,0,0,1-2.882,1.915Z" fill="#ca9e67"/><path d="M448.1,433.684v4.329H432.687v-3.891a6.875,6.875,0,0,1,2.41-4.089,18.916,18.916,0,0,1,4.158-2.556,15.559,15.559,0,0,0,3.123-1.834,3.733,3.733,0,0,0,1.529-2.753,2.253,2.253,0,0,0-.236-1.112,3.112,3.112,0,0,0-1.645-1.533,4,4,0,0,0-2.169-.211,4.181,4.181,0,0,0-2,.9,3.059,3.059,0,0,0-.988,1.5l-.12.387h-4.092l.116-.649a7.113,7.113,0,0,1,2.465-4.355,8.313,8.313,0,0,1,3.96-1.787,8.167,8.167,0,0,1,4.346.43,7.185,7.185,0,0,1,3.767,3.5,6.271,6.271,0,0,1,.653,3.127,7.372,7.372,0,0,1-2.337,5.047,17.338,17.338,0,0,1-4.639,3.007,17.676,17.676,0,0,0-2.577,1.417,3.814,3.814,0,0,0-1.121,1.121Z" fill="#ca9e67"/><path d="M463.375,416.366v21.647h-4.308V423.659l-.434.571-3.445-2.59,4.007-5.274Z" fill="#ca9e67"/><circle cx="113.888" cy="113.888" r="113.888" transform="translate(183.75 307.057)" fill="#ca9e67"/><path d="M270.026,526.534l-77.977-77.977A109.3,109.3,0,0,0,270.026,526.534Z" fill="#b78855"/><path d="M189.326,407.675,310.908,529.257a108.386,108.386,0,0,0,29.863-8.058L197.384,377.812A108.386,108.386,0,0,0,189.326,407.675Z" fill="#b78855"/><path d="M211.584,353.851,364.732,507a109.781,109.781,0,0,0,18.96-18.961L230.545,334.891A109.783,109.783,0,0,0,211.584,353.851Z" fill="#b78855"/><path d="M254.505,320.692,397.891,464.078a108.371,108.371,0,0,0,8.059-29.862L284.367,312.633A108.372,108.372,0,0,0,254.505,320.692Z" fill="#b78855"/><path d="M325.255,315.357l77.971,77.971A109.306,109.306,0,0,0,325.255,315.357Z" fill="#b78855"/><path d="M305.831,355.721l-51.97,18.039c.232-.644.451-1.289.653-1.959,3.032-9.84.309-17.88.46-27.613.4-25.8,36.28-.047,44.239,6.039C301.2,351.756,303.439,353.577,305.831,355.721Z" fill="#733f14"/><path d="M343.4,379.5a18.37,18.37,0,0,0-3.509.472l-98.357,22.764a19.094,19.094,0,0,0-4.75,1.791l-2.414-6.958A12.383,12.383,0,0,1,242,381.821l9.934-3.436L308.9,358.6l12.632-4.394a12.348,12.348,0,0,1,15.73,7.581l.016.047Z" fill="#733f14"/><path d="M364.59,419.777l-132.4,9.952-1.185-5.111a15.2,15.2,0,0,1,11.367-18.245l.024,0L340.753,383.6a15.224,15.224,0,0,1,3.436-.4h.15a15.184,15.184,0,0,1,1.881.137,15.578,15.578,0,0,1,1.89.382,15.236,15.236,0,0,1,10.9,11.262l5.29,22.864A15.123,15.123,0,0,1,364.59,419.777Z" fill="#733f14"/><path d="M388.21,441.15v17.756a18.083,18.083,0,0,1-18.039,18.061H225.127a18.083,18.083,0,0,1-18.061-18.061v-6.872a18.083,18.083,0,0,1,18.061-18.061h.069l4.085-.3,1.881-.142,1.894-.133,131.467-9.879,1.894-.137,1.894-.146.576-.043a17.884,17.884,0,0,1,5.906.5A18.068,18.068,0,0,1,388.21,441.15Z" fill="#733f14"/><ellipse cx="14.324" cy="18.851" rx="14.324" ry="18.851" transform="translate(305.79 397.748)" fill="#fff"/><ellipse cx="14.324" cy="18.851" rx="14.324" ry="18.851" transform="translate(260.823 397.748)" fill="#fff"/><path d="M275.147,396.285c8.7,0,15.782,9.111,15.782,20.309s-7.079,20.314-15.782,20.314S259.36,427.8,259.36,416.6,266.445,396.285,275.147,396.285Zm0,37.7c7.094,0,12.866-7.8,12.866-17.393s-5.772-17.386-12.866-17.386-12.866,7.8-12.866,17.393,5.772,17.393,12.866,17.393Z" fill="#ededed"/><path d="M320.134,396.285c8.7,0,15.782,9.111,15.782,20.309s-7.079,20.314-15.782,20.314-15.787-9.11-15.787-20.309S311.432,396.285,320.134,396.285Zm0,37.7c7.094,0,12.866-7.8,12.866-17.393s-5.772-17.386-12.866-17.386-12.866,7.8-12.866,17.393,5.772,17.393,12.866,17.393Z" fill="#ededed"/><ellipse cx="7.413" cy="12.026" rx="7.413" ry="12.026" transform="translate(264.423 404.573)" fill="#1d1d1b"/><ellipse cx="7.413" cy="12.026" rx="7.413" ry="12.026" transform="translate(309.422 404.573)" fill="#1d1d1b"/><path d="M308.357,441.311c1.082-.326,2.148.176,2.216,1.057.533,5.343-3.926,10.9-10.712,12.937s-13.568-.146-16.068-4.9c-.43-.782.185-1.778,1.289-2.1Z" fill="#fff"/></g></svg>