<svg id="Layer_1" data-name="Layer 1" xmlns="http://www.w3.org/2000/svg" viewBox="0 0 1080 1080"><defs><style>.cls-1{fill:#4ad8ca;}.cls-2{fill:#455ec9;}.cls-3{fill:none;}.cls-4{fill:#32c9b7;}.cls-5{fill:#ebcfb2;}.cls-6{fill:#b2642f;}.cls-7{fill:#fff;}.cls-8{fill:#bf7340;}.cls-9{fill:#e1c1a2;}</style></defs><path class="cls-1" d="M540,11.94c291.64,0,528.06,236.42,528.06,528.06S831.64,1068.06,540,1068.06,11.94,831.64,11.94,540,248.32,11.94,540,11.94ZM1027.65,540c0-269.32-218.33-487.65-487.65-487.65S52.35,270.68,52.35,540,270.68,1027.65,540,1027.65,1027.65,809.32,1027.65,540Z"/><path class="cls-2" d="M540,1080A540.14,540.14,0,0,1,329.8,42.44a540.14,540.14,0,0,1,420.4,995.12A536.65,536.65,0,0,1,540,1080ZM540,23.89a516.25,516.25,0,0,0-200.89,991.67A516.25,516.25,0,0,0,740.89,64.44,512.85,512.85,0,0,0,540,23.89Z"/><path class="cls-2" d="M540,1038.67A498.8,498.8,0,0,1,345.89,80.52a498.8,498.8,0,0,1,388.22,919A495.5,495.5,0,0,1,540,1038.67Zm0-975.29A476.75,476.75,0,0,0,354.48,979.17a476.75,476.75,0,0,0,371-878.34A473.62,473.62,0,0,0,540,63.38Z"/><circle class="cls-1" cx="538.85" cy="540" r="305.97"/><path class="cls-3" d="M232.88,540a306.45,306.45,0,0,0,9.89,77.43L461.42,836.07a307.6,307.6,0,0,0,114.63,7.64L235.14,502.79A308.78,308.78,0,0,0,232.88,540Z"/><path class="cls-3" d="M350.71,298.7,780.14,728.13A305.66,305.66,0,0,0,820,661L417.9,258.89A305.69,305.69,0,0,0,350.71,298.7Z"/><path class="cls-3" d="M257.73,419.06,659.79,821.11A305.54,305.54,0,0,0,727,781.3L297.55,351.87A305.73,305.73,0,0,0,257.73,419.06Z"/><path class="cls-3" d="M538.85,234a308.94,308.94,0,0,0-37.22,2.26L842.56,577.22a308.35,308.35,0,0,0-7.64-114.65L616.28,243.93A306.45,306.45,0,0,0,538.85,234Z"/><path class="cls-4" d="M461.42,836.07,242.77,617.43A306.48,306.48,0,0,0,461.42,836.07Z"/><path class="cls-4" d="M235.14,502.79,576.05,843.71a303.53,303.53,0,0,0,83.74-22.6l-402.06-402A303.89,303.89,0,0,0,235.14,502.79Z"/><path class="cls-4" d="M297.55,351.87,727,781.3a307.81,307.81,0,0,0,53.16-53.17L350.71,298.7A307.81,307.81,0,0,0,297.55,351.87Z"/><path class="cls-4" d="M417.9,258.89,820,661a303.9,303.9,0,0,0,22.6-83.73L501.63,236.29A303.9,303.9,0,0,0,417.9,258.89Z"/><path class="cls-4" d="M616.28,243.93,834.92,462.57A306.48,306.48,0,0,0,616.28,243.93Z"/><path class="cls-1" d="M540,870.1a330.09,330.09,0,1,1,233.42-96.68A327.94,327.94,0,0,1,540,870.1Zm0-646.85A316.74,316.74,0,1,0,764,316,314.71,314.71,0,0,0,540,223.25Z"/><path class="cls-2" d="M352.55,871.65q6.94-6,12.52-10t8.52-3.94q.75-1.42-1.24-4.61a25.07,25.07,0,0,0-5.54-6.08,23.84,23.84,0,0,0-7.95-4.24,10,10,0,0,0-8.35,1q-1.85,1.1-5.63,5.63t-8.61,10.71q-4.8,6.18-10.3,13.17T315.29,886.1a115.65,115.65,0,0,1-9.66,9.91q-4.49,4-7.38,4.3c-.25,0,0-.57.8-1.81s1.87-2.89,3.27-4.94,3-4.35,4.85-6.9,3.68-5.06,5.53-7.55L318,872c1.65-2.25,3.05-4.1,4.17-5.58a8.33,8.33,0,0,0,1.64-6.18,17.7,17.7,0,0,0-2-6.55,13.42,13.42,0,0,0-4.09-4.71,4.27,4.27,0,0,0-4.66-.55q-2.49,1.27-6.72,4t-9.14,6q-4.9,3.25-10,6.73t-9.26,6.21c-2.78,1.82-5.13,3.29-7,4.39s-3,1.52-3.19,1.23c-.52-.5.48-1.8,3-3.9s5.72-4.72,9.69-7.87,8.3-6.68,13-10.6,9.1-7.9,13.16-12a81.69,81.69,0,0,0,10.08-12.09q4-6,3.7-10.87a16.13,16.13,0,0,0-4.15-10.19,24.72,24.72,0,0,0-9.87-6.53,42.88,42.88,0,0,0-13.69-2.53,54.44,54.44,0,0,0-15.7,1.87,62.5,62.5,0,0,0-15.77,6.65,55.05,55.05,0,0,0-13.87,11.7,9,9,0,0,0-2.48,6.2,14.92,14.92,0,0,0,1.56,6.37,23.41,23.41,0,0,0,4,5.76,37.41,37.41,0,0,0,5.05,4.53A19.12,19.12,0,0,0,259.9,846c1.29.49,2.06.5,2.32,0a51,51,0,0,1,6.71-10.64,73.41,73.41,0,0,1,8.6-9,69,69,0,0,1,9.13-6.81,47.5,47.5,0,0,1,8.42-4.25,16,16,0,0,1,6.37-1.23,3.19,3.19,0,0,1,3.18,2.18c.42,1.77-.32,3.84-2.25,6.21a54.8,54.8,0,0,1-8,7.69Q289.33,834.38,283,839t-12.52,9.39q-6.13,4.76-11.25,9.36a41.2,41.2,0,0,0-7.67,8.84,14,14,0,0,0-2.41,7.09,14.47,14.47,0,0,0,1.15,6.14,17.09,17.09,0,0,0,3.37,5,21,21,0,0,0,4.51,3.61,17.75,17.75,0,0,0,4.37,1.93,3.9,3.9,0,0,0,3-.07l3.92-2.51c2-1.27,4.21-2.74,6.7-4.4s5.08-3.41,7.77-5.25,5.13-3.52,7.33-5,4-2.66,5.35-3.51,2-1.16,1.82-1-1.07,1.47-2.56,3.56-3.15,4.52-5,7.3-3.68,5.57-5.51,8.4a54.07,54.07,0,0,0-3.91,6.87,9.62,9.62,0,0,0-.11,6.92,19.53,19.53,0,0,0,4.27,7.52,20.53,20.53,0,0,0,7.57,5.29,13.9,13.9,0,0,0,9.86.1q2.64-.82,8.13-5.4T323.5,898.3q6.86-6.36,14.48-13.48T352.55,871.65Z"/><path class="cls-2" d="M377.19,915.91a5.69,5.69,0,0,0-2-1,1.85,1.85,0,0,0-1.86.5,63,63,0,0,1-7.33,6.48,56.67,56.67,0,0,1-7.39,4.76,29.43,29.43,0,0,1-6.58,2.63,8,8,0,0,1-4.63.13,3.4,3.4,0,0,1-2-2,9.15,9.15,0,0,1-.67-3.34,13.67,13.67,0,0,1,.42-3.78,17.49,17.49,0,0,1,1.24-3.45c1.57,2.63,3.51,4.15,5.81,4.58a13.16,13.16,0,0,0,6.94-.63,20.56,20.56,0,0,0,6.53-3.91,25.62,25.62,0,0,0,4.74-5.23q3.43-5.57,2.39-10.42a13,13,0,0,0-4.91-7.82,17.54,17.54,0,0,0-9.63-3.41,19.9,19.9,0,0,0-11.48,2.85,42.48,42.48,0,0,0-7.17,5.38,40.16,40.16,0,0,0-10.3,15.21,21.62,21.62,0,0,0-1.5,8.27,15.19,15.19,0,0,0,1.95,7.87,15.79,15.79,0,0,0,5,5.27,18.73,18.73,0,0,0,6.8,2.7,20,20,0,0,0,7.51,0,32.86,32.86,0,0,0,7.48-2.2,45.25,45.25,0,0,0,6.92-3.8,71,71,0,0,0,7.14-5.47q3.68-3.16,8.13-7.2c.23-.28.2-.71-.11-1.3A5.1,5.1,0,0,0,377.19,915.91ZM353,907.6a27.73,27.73,0,0,1,4.41-3.18,15.72,15.72,0,0,1,4.31-1.74,7.36,7.36,0,0,1,3.38-.14c.76.27.59,1.08-.5,2.41a23.4,23.4,0,0,1-4.37,4,23.65,23.65,0,0,1-5.86,3.13c-2.09.76-3.74.65-4.93-.32A17.62,17.62,0,0,1,353,907.6Z"/><path class="cls-2" d="M397,887.57a12.27,12.27,0,0,0,4.11,1.35,10.19,10.19,0,0,0,5.08-.55,15.7,15.7,0,0,0,4.14-2.14,26.67,26.67,0,0,0,3.69-3.18,26,26,0,0,0,3-3.68,20.83,20.83,0,0,0,1.95-3.65,4.69,4.69,0,0,0,0-4,7.17,7.17,0,0,0-2.78-2.9,9.29,9.29,0,0,0-4.07-1.26,6.15,6.15,0,0,0-4,1,13.72,13.72,0,0,0-3.87,3.26,47.41,47.41,0,0,0-3.46,4.55c-1,1.58-2,3-2.87,4.36a9.34,9.34,0,0,1-2.26,2.61c-.9.59-1.18,1.29-.83,2.09A4.81,4.81,0,0,0,397,887.57Z"/><path class="cls-2" d="M475.9,943.13a5.47,5.47,0,0,0-2.2-.52,1.84,1.84,0,0,0-1.68.94,64.17,64.17,0,0,1-5.51,8.09,55.52,55.52,0,0,1-6,6.43,29.08,29.08,0,0,1-5.73,4.18,7.89,7.89,0,0,1-4.45,1.26,3.41,3.41,0,0,1-2.42-1.44,9.27,9.27,0,0,1-1.47-3.08,13.71,13.71,0,0,1-.52-3.76,18.36,18.36,0,0,1,.34-3.66c2.18,2.16,4.44,3.17,6.77,3a13.05,13.05,0,0,0,6.57-2.32,20.74,20.74,0,0,0,5.37-5.4,26,26,0,0,0,3.3-6.24c1.3-4.15,1.22-7.72-.26-10.68a13,13,0,0,0-6.69-6.38,17.59,17.59,0,0,0-10.17-.93,19.87,19.87,0,0,0-10.42,5.6,41.47,41.47,0,0,0-5.29,6.5,6.14,6.14,0,0,0-1.95-.16,2.54,2.54,0,0,0-1.62.54q-1.31,1.54-3.38,3.54t-4.5,4q-2.43,2-5,4a53.23,53.23,0,0,1-4.66,3.22,16.43,16.43,0,0,1-3.74,1.76c-1.07.32-1.81.24-2.21-.26-.6-.74-.33-1.86.83-3.35a43.24,43.24,0,0,1,4.74-5.07c2-1.88,4.21-3.91,6.6-6.1a74,74,0,0,0,6.29-6.46,24.51,24.51,0,0,0,4-6.14,5.1,5.1,0,0,0-.4-5.26,7.37,7.37,0,0,0-4.62-2.8,28.61,28.61,0,0,0-6.19-.66c-2.08,0-3.91.1-5.49.26s-2.38.15-2.42,0a6.69,6.69,0,0,0-.88-1.87c-.47-.74-.9-1.5-1.31-2.27a3.8,3.8,0,0,0-1.57-1.46,10.52,10.52,0,0,0-2.41-1A8.33,8.33,0,0,0,403,909a5.65,5.65,0,0,0-2.27.62,8.23,8.23,0,0,0-2.69,2.65,20.41,20.41,0,0,0-2.31,4.35,17.36,17.36,0,0,0-1.15,4.86,6.23,6.23,0,0,0,.86,4,3.31,3.31,0,0,0,2.38,1.49,30.65,30.65,0,0,0,3.35.41q1.69.1,3.21.15a2.73,2.73,0,0,1,2.12.79c.2.25-.19.84-1.17,1.79s-2.19,2.06-3.6,3.34-2.88,2.68-4.41,4.19a28.24,28.24,0,0,0-3.59,4.24,16,16,0,0,0-2.92,7,11.51,11.51,0,0,0,.77,6.07,10.44,10.44,0,0,0,3.69,4.47,14.76,14.76,0,0,0,5.81,2.34,18.65,18.65,0,0,0,7.07-.19,21.67,21.67,0,0,0,7.62-3.35A103.11,103.11,0,0,0,428,948.49c.72-.68,1.41-1.36,2.09-2a39.8,39.8,0,0,0-1.19,6,21.68,21.68,0,0,0,.59,8.39A15.27,15.27,0,0,0,433.3,968a15.75,15.75,0,0,0,6.11,3.88,18.63,18.63,0,0,0,7.26.94A19.78,19.78,0,0,0,454,971a33,33,0,0,0,6.71-4,46.46,46.46,0,0,0,5.77-5.39,72.18,72.18,0,0,0,5.57-7.06q2.78-4,6.1-9c.16-.33,0-.75-.42-1.24A5.09,5.09,0,0,0,475.9,943.13ZM450.39,941a26.38,26.38,0,0,1,3.49-4.16,16,16,0,0,1,3.74-2.76,7.44,7.44,0,0,1,3.25-1c.8.07.83.89.11,2.46a23.4,23.4,0,0,1-3.25,5,23.68,23.68,0,0,1-4.91,4.48c-1.84,1.25-3.46,1.56-4.86.91A17.8,17.8,0,0,1,450.39,941Z"/><path class="cls-2" d="M632.87,933.61a3.62,3.62,0,0,0-2.39.55,3,3,0,0,0-1.34,2.38,64,64,0,0,1-1.29,7.64c-.66,3-1.41,5.8-2.27,8.46a61.32,61.32,0,0,1-2.6,6.83c-.88,1.89-1.68,2.83-2.41,2.79-.54,0-1-.72-1.4-2.22a40.72,40.72,0,0,1-1-6.1c-.25-2.56-.42-5.51-.51-8.83s-.13-6.82-.11-10.48.1-7.36.24-11.09.36-7.3.66-10.7a47.85,47.85,0,0,0,6.69-1.77c.85-.26,1.43-1.06,1.75-2.39a12.35,12.35,0,0,0,.23-4.18,10.67,10.67,0,0,0-1.13-3.83,2.12,2.12,0,0,0-2.43-1.33c-.61.12-1.22.22-1.84.3s-1.23.19-1.83.31c.42-2.8.94-4.66,1.56-5.6q1.32-2.18-.92-3.88a12.8,12.8,0,0,0-5.82-2.27,18.51,18.51,0,0,0-7.49.45,10.34,10.34,0,0,0-6.13,4.16,12.72,12.72,0,0,0-1.42,4.29,53.44,53.44,0,0,0-.85,7.15l-8.27,2a3.26,3.26,0,0,0-2.33,2.51,8.93,8.93,0,0,0-.1,4.15,8.5,8.5,0,0,0,1.7,3.71,3,3,0,0,0,3.09,1.2l5.59-1.14q0,7.32.49,15.34c.18,2.95.41,5.82.67,8.62a3.85,3.85,0,0,0-.52.34,3.94,3.94,0,0,0-1.22,2.31c-.13.54-.31,1.34-.56,2.38a32.37,32.37,0,0,1-1,3.29,15.64,15.64,0,0,1-1.72,3.35,6.17,6.17,0,0,1-2.75,2.34,41.4,41.4,0,0,0-.17-11.53,23.54,23.54,0,0,0-3.54-9.46,13.75,13.75,0,0,0-8.42-5.85,20.53,20.53,0,0,0-11,.24,22.21,22.21,0,0,0-9.81,6,18.21,18.21,0,0,0-4.88,11.5h0a4.59,4.59,0,0,0-1.78.39,3.31,3.31,0,0,0-1.76,1.69q-1.25,3.17-2.78,6.85t-3,6.84a51.07,51.07,0,0,1-3,5.39c-1,1.48-1.79,2.31-2.5,2.47-.89.25-1.42-.11-1.57-1.09a12,12,0,0,1,.27-4c.34-1.72.85-3.68,1.51-5.88s1.36-4.44,2.12-6.73,1.45-4.46,2.11-6.53a52.16,52.16,0,0,0,1.43-5.21q.74-3.71-1-5.93a8.29,8.29,0,0,0-4.66-2.94,12.5,12.5,0,0,0-6.1.08,11.1,11.1,0,0,0-5.37,3,63.15,63.15,0,0,0-6,7.45A69.22,69.22,0,0,0,515.72,952q1.53-4,2.73-7.38c.79-2.29,1.48-4.57,2-6.87s.17-4-1.22-5.26a9.35,9.35,0,0,0-5.07-2.22,12.53,12.53,0,0,0-5.85.61,5.69,5.69,0,0,0-3.71,3.12,34.65,34.65,0,0,0-2,5.27c-.66,2.2-1.31,4.6-1.93,7.2s-1.21,5.31-1.75,8.13-1,5.51-1.28,8.07a67,67,0,0,0-.54,7,14,14,0,0,0,.58,4.85,8.73,8.73,0,0,0,3.16,4.51,9.17,9.17,0,0,0,4.88,1.88,6.81,6.81,0,0,0,4.8-1.56q2.24-1.76,3.1-5.85a70.49,70.49,0,0,1,3.06-10.69,83.58,83.58,0,0,1,3.82-8.76,36.79,36.79,0,0,1,3.63-5.9c1.13-1.44,2-2.19,2.5-2.27s.36.73-.25,2.45-1.33,3.89-2.18,6.52a63.51,63.51,0,0,0-2.1,8.86,24.59,24.59,0,0,0,.16,9.42,9.46,9.46,0,0,0,3.14,5.51,10.63,10.63,0,0,0,5.6,2.43,12.74,12.74,0,0,0,6.52-1,15.83,15.83,0,0,0,6.06-4.66,40.13,40.13,0,0,0,3.56-5.44q1.78-3.21,3.45-6.83c.48-1.05.94-2.11,1.4-3.17a36.32,36.32,0,0,0,.9,6.57,25,25,0,0,0,4.49,9.63,13.28,13.28,0,0,0,8.87,5.07,17.18,17.18,0,0,0,7.28-.2,18.12,18.12,0,0,0,6.14-2.88,22.88,22.88,0,0,0,5-4.88,38.93,38.93,0,0,0,3.82-6.22,17.28,17.28,0,0,0,6.65-5.12,36.37,36.37,0,0,0,4.46-7.09c.51-1.07.94-2.11,1.33-3.14.46,3.17,1,6.11,1.55,8.78a36.15,36.15,0,0,0,2.8,8.71,9.42,9.42,0,0,0,4.8,4.64,10.65,10.65,0,0,0,6.21.56,13.61,13.61,0,0,0,6.13-3.15,17.47,17.47,0,0,0,4.7-6.51A90.56,90.56,0,0,0,632,950.66c1.11-4.51,2.28-9.07,3.51-13.65a2.16,2.16,0,0,0-.42-2.42A3.84,3.84,0,0,0,632.87,933.61Zm-52.8,16a38,38,0,0,1-1.23,6.83,5.45,5.45,0,0,0-2.82,4.93,6.54,6.54,0,0,0,.26,2.63,22.57,22.57,0,0,1-2.65,4.65c-.9,1.15-1.76,1.63-2.57,1.45a3.83,3.83,0,0,1-2.9-3.09,15.52,15.52,0,0,1-.29-6.14,28.84,28.84,0,0,1,1.93-7.16,22.54,22.54,0,0,1,3.74-6.29,3.08,3.08,0,0,0,1.13-2,3,3,0,0,0-.45-1.74,2.6,2.6,0,0,0-1.23-1.07,2.89,2.89,0,0,0-1.42-.26,5.22,5.22,0,0,1,4.23-1.42c1.7.14,3,1.27,3.8,3.4A12.85,12.85,0,0,1,580.07,949.63Z"/><path class="cls-2" d="M799.86,851.42a2.18,2.18,0,0,0-1.45-2,3.8,3.8,0,0,0-2.38.07,3.68,3.68,0,0,0-1.9,1.55,3.06,3.06,0,0,0-.16,2.73,64.34,64.34,0,0,1,2.22,7.43q1.08,4.44,1.68,8.58a59.89,59.89,0,0,1,.67,7.28q.08,3.13-.93,3.57c-.47.26-1.22-.2-2.23-1.37a41.17,41.17,0,0,1-3.57-5q-2-3.29-4.35-7.7c-1.54-2.94-3.11-6.07-4.71-9.36s-3.15-6.65-4.66-10.06-2.89-6.71-4.12-9.9a47.49,47.49,0,0,0,5.21-4.53,2.9,2.9,0,0,0,.52-2.91,12.35,12.35,0,0,0-1.63-3.86,10.69,10.69,0,0,0-2.7-2.94,2.12,2.12,0,0,0-2.77-.12c-.49.37-1,.74-1.51,1.08s-1,.7-1.51,1.08a15.6,15.6,0,0,1-1.07-5.72c.16-1.68-.69-2.7-2.53-3.07a12.78,12.78,0,0,0-6.22.53,18.29,18.29,0,0,0-6.53,3.7,10.29,10.29,0,0,0-3.67,6.43,12.79,12.79,0,0,0,.61,4.48,53.65,53.65,0,0,0,2.39,6.79l-4.91,4a5.84,5.84,0,0,0-3.49-.82,14.82,14.82,0,0,0-4.74.9,13.77,13.77,0,0,0-4.16,2.36,4.31,4.31,0,0,0-1.73,3.53,20.46,20.46,0,0,0,.36,2.47,36.77,36.77,0,0,0,1.15,4.49,33.63,33.63,0,0,0,2,5,8.88,8.88,0,0,0,2.92,3.56,4.34,4.34,0,0,0,3.25.47,17.36,17.36,0,0,0,4.07-1.18,15.59,15.59,0,0,0,3.47-2,4,4,0,0,0,1.66-2.05,10.48,10.48,0,0,0-.26-3.88c-.1-.51-.23-1-.34-1.52a3,3,0,0,0,1.41-.6l4.51-3.49Q761,856,764.93,863q2.18,3.82,4.38,7.42l-.19.29a3.08,3.08,0,0,0-.12,2.7,55.38,55.38,0,0,1,2.22,7.21c.67,2.79,1.23,5.47,1.66,8a43.66,43.66,0,0,1,.68,6.8c0,2-.32,3.05-1,3.29q-1.77.69-3.43-2.66a80.39,80.39,0,0,1-3.47-8.37q-1.8-5-3.75-10.48a57.14,57.14,0,0,0-4.07-9.16c-.71-1.23-2-1.88-3.91-1.95a16.27,16.27,0,0,0-5.73.84,13.78,13.78,0,0,0-4.92,2.78c-1.37,1.23-2,2.46-1.77,3.71a40.41,40.41,0,0,0,2.08,7.23c.69,1.92,1.51,3.94,2.43,6l-.11.14a4.17,4.17,0,0,0-.45,3,69.84,69.84,0,0,1,.7,8.68c.07,3.11,0,6-.18,8.7a42,42,0,0,1-1,6.78q-.67,2.75-1.5,2.88c-.63.13-1.18-.51-1.66-1.9a34.63,34.63,0,0,1-1.28-5.47c-.38-2.25-.73-4.76-1.07-7.52s-.79-5.48-1.33-8.14a51.84,51.84,0,0,0-2-7.27,12.37,12.37,0,0,0-2.93-4.91c-2.49-2.29-5-3.18-7.46-2.69a13.7,13.7,0,0,0-6.94,3.91,27.6,27.6,0,0,0-5.48,8,34.29,34.29,0,0,0-3,9.54c-.72-2.71-1.41-5.9-2.06-9.55s-1.16-7.25-1.52-10.8a87.51,87.51,0,0,1-.46-9.94,16.91,16.91,0,0,1,1.16-6.81,1.86,1.86,0,0,0-.63-2.51,8.65,8.65,0,0,0-3.76-1.34,19.94,19.94,0,0,0-5.46,0,24,24,0,0,0-5.77,1.43,12.85,12.85,0,0,0-4.64,3,6.76,6.76,0,0,0-2,4.69,35.84,35.84,0,0,0,1,8.48q1.1,5.26,3,11.76t4.32,13.46q1.6,4.59,3.29,9a4.47,4.47,0,0,0-1.29,1.09,3.93,3.93,0,0,0-.76,2.7c-.05.39-.17,1.14-.37,2.25s-.46,2.44-.78,4-.75,3.25-1.27,5.14-1.07,3.75-1.62,5.56a21.94,21.94,0,0,0-1.14-1.92c-.43-.64-.92-1.33-1.48-2.06a30.28,30.28,0,0,1-3.83-5.94,18.08,18.08,0,0,1-1.48-4.55,8.73,8.73,0,0,1,0-3.48c.25-1,.45-1.89.62-2.71.54-2.09.17-3.67-1.13-4.75a10.24,10.24,0,0,0-5.3-2.06,22.36,22.36,0,0,0-7.31.31,26.49,26.49,0,0,0-7.29,2.5,15.26,15.26,0,0,0-5.3,4.38,6.74,6.74,0,0,0-1.21,5.9.14.14,0,0,1,0,.06c0,1.46,0,2.9.05,4.3,0,1.6,0,3.22,0,4.87s0,3.08.1,4.28l0,.12a39.89,39.89,0,0,0,.92,9.71,25.65,25.65,0,0,0,3.89,9.32,17.1,17.1,0,0,0,7.58,6.1q4.79,2,11.86.11a19.44,19.44,0,0,0,7.9-4.28,15.09,15.09,0,0,0,4.59-7.44q1.13-2.68,2.62-7.42t2.75-9.73c.73-2.9,1.31-5.6,1.76-8.11,1.23,3,2.45,5.77,3.66,8.37a92.62,92.62,0,0,0,4.57,8.76,8.47,8.47,0,0,0,5.2,4.25,9.2,9.2,0,0,0,5.67-.33,9.06,9.06,0,0,0,4.13-3.28,4.72,4.72,0,0,0,.54-4.69,110.23,110.23,0,0,1-5.31-15.79,59.3,59.3,0,0,1-1.69-10.72,15.33,15.33,0,0,1,.79-6.39,6.44,6.44,0,0,1,2.17-3c.59-.41,1.08.36,1.49,2.29s.89,4.37,1.43,7.33,1.27,6.13,2.18,9.49a26.4,26.4,0,0,0,4,8.75,10.41,10.41,0,0,0,5.53,4.15A12.77,12.77,0,0,0,741,929a16.12,16.12,0,0,0,5.89-2.62,9.49,9.49,0,0,0,3.57-4.48,33.34,33.34,0,0,0,2-9.15,84.5,84.5,0,0,0,.32-9.89c0-1.23-.11-2.42-.19-3.59.46.71.91,1.42,1.39,2.12a40.63,40.63,0,0,0,7.42,8.46A9.74,9.74,0,0,0,773.36,911a12.9,12.9,0,0,0,4.34-4.87,16.68,16.68,0,0,0,1.88-7.61,41.14,41.14,0,0,0-.4-7.45q-.51-3.55-1.22-6.91c-.07-.34-.16-.68-.23-1,1,1.35,1.95,2.64,2.89,3.84a35.7,35.7,0,0,0,6.34,6.58,9.33,9.33,0,0,0,6.36,2.05,10.54,10.54,0,0,0,5.82-2.23,13.65,13.65,0,0,0,4.12-5.52,17.6,17.6,0,0,0,1.35-7.92,91.17,91.17,0,0,0-1.89-14.72Q801.24,858.41,799.86,851.42ZM677.45,944.86a5.15,5.15,0,0,1-3.81,1,11.51,11.51,0,0,1-5.15-1.84,12.92,12.92,0,0,1-4.58-5.09c.08-1.82.11-3.83.09-6s-.06-4.39-.1-6.54q2.07,1.77,4.28,3.71c1.48,1.3,2.87,2.57,4.19,3.83a35.22,35.22,0,0,1,3.46,3.8,14.47,14.47,0,0,1,2.19,3.79C678.58,943,678.38,944.09,677.45,944.86Z"/><path class="cls-2" d="M826.35,863.45a16.34,16.34,0,0,0-1.68-2.77,22.21,22.21,0,0,0-1.89-2.23,4.94,4.94,0,0,0-1.48-1.16,6.75,6.75,0,0,0-3.59-.54A7.15,7.15,0,0,0,814.4,858a8,8,0,0,0-2.36,2.64,6.57,6.57,0,0,0-.74,3.76,5.31,5.31,0,0,0,.72,2.11,20.91,20.91,0,0,0,1.64,2.54,17.9,17.9,0,0,0,2.08,2.33,8,8,0,0,0,2,1.48A4,4,0,0,0,821,873a9.4,9.4,0,0,0,3.12-1.89,12.7,12.7,0,0,0,2.32-2.68,3.4,3.4,0,0,0,.73-2.17A8.24,8.24,0,0,0,826.35,863.45Z"/><path class="cls-2" d="M846.1,844.4a16.39,16.39,0,0,0-1.84-2.67,21.63,21.63,0,0,0-2-2.1,5,5,0,0,0-1.55-1.07,6.76,6.76,0,0,0-3.61-.31,7.06,7.06,0,0,0-3.23,1.46,8.06,8.06,0,0,0-2.2,2.78,6.62,6.62,0,0,0-.5,3.81,5.33,5.33,0,0,0,.86,2.06,19.86,19.86,0,0,0,1.79,2.43A17.64,17.64,0,0,0,836,853a7.78,7.78,0,0,0,2.11,1.35,4,4,0,0,0,3.24-.06,9.34,9.34,0,0,0,3-2.08,12.43,12.43,0,0,0,2.15-2.82,3.36,3.36,0,0,0,.6-2.21A8.21,8.21,0,0,0,846.1,844.4Z"/><path class="cls-2" d="M864.65,824.12a16.37,16.37,0,0,0-2-2.55,23.39,23.39,0,0,0-2.15-2,5.19,5.19,0,0,0-1.62-1,6.79,6.79,0,0,0-3.63-.09,7.15,7.15,0,0,0-3.13,1.67,7.77,7.77,0,0,0-2,2.91,6.61,6.61,0,0,0-.27,3.83,5.39,5.39,0,0,0,1,2,19.17,19.17,0,0,0,1.94,2.31,18.15,18.15,0,0,0,2.35,2.06,8.06,8.06,0,0,0,2.2,1.21,4,4,0,0,0,3.22-.26,9.72,9.72,0,0,0,2.86-2.26,12.44,12.44,0,0,0,2-3,3.35,3.35,0,0,0,.46-2.24A8.15,8.15,0,0,0,864.65,824.12Z"/><path class="cls-2" d="M883.23,805.34a8.38,8.38,0,0,0-1.32-2.62,16.08,16.08,0,0,0-2.16-2.41,21.14,21.14,0,0,0-2.26-1.83,4.91,4.91,0,0,0-1.67-.87,6.74,6.74,0,0,0-3.62.13,7.07,7.07,0,0,0-3,1.85,8.07,8.07,0,0,0-1.83,3,6.55,6.55,0,0,0,0,3.83,5.38,5.38,0,0,0,1.1,1.94,19.15,19.15,0,0,0,2.08,2.18,17.67,17.67,0,0,0,2.46,1.91,7.9,7.9,0,0,0,2.26,1.07,4,4,0,0,0,3.2-.45,9.59,9.59,0,0,0,2.71-2.43,12.39,12.39,0,0,0,1.78-3.06A3.38,3.38,0,0,0,883.23,805.34Z"/><path class="cls-2" d="M142.69,457.77q-8.74,4.05-10.43,12.28a16,16,0,0,0,.09,7,16.74,16.74,0,0,0,2.9,6.13,19,19,0,0,0,5.28,4.72,22,22,0,0,0,7.25,2.82,22.31,22.31,0,0,0,7.86.27,19.11,19.11,0,0,0,6.77-2.3,17,17,0,0,0,5.11-4.49,15.32,15.32,0,0,0,2.82-6.29q1.57-7.76-4.48-15.43l21.24,4.35.31,1.78a45,45,0,0,1,.73,7.36,30.64,30.64,0,0,1-.61,6.48,29.65,29.65,0,0,1-5.22,11.77,32.62,32.62,0,0,1-9.72,8.82,39,39,0,0,1-13.1,4.84,42,42,0,0,1-29.32-6,37.48,37.48,0,0,1-10-9.5,33.36,33.36,0,0,1-5.37-12,30.32,30.32,0,0,1-.16-13,31.09,31.09,0,0,1,2.36-7.11,42.24,42.24,0,0,1,4.24-7Z"/><path class="cls-2" d="M156.19,426.45l8.1-22.39-25.58-9.25,5.61-15.5,66.27,24L205,418.78l-27.33-9.88-8.1,22.38,27.34,9.88-5.61,15.5L125,432.7l5.61-15.5Z"/><path class="cls-2" d="M160.29,347.13l63.15,31.28-7.32,14.77L153,361.9Z"/><path class="cls-2" d="M213,304.29q-9.61.73-14.07,7.86a15.76,15.76,0,0,0-2.37,6.6,16.74,16.74,0,0,0,.57,6.76,18.94,18.94,0,0,0,3.29,6.27A23.42,23.42,0,0,0,213.51,340a19.22,19.22,0,0,0,7.15.21,16.89,16.89,0,0,0,6.36-2.41,15.35,15.35,0,0,0,4.84-4.91q4.2-6.71,1.2-16l18.38,11.51-.34,1.77a44.84,44.84,0,0,1-1.88,7.15,30.56,30.56,0,0,1-2.84,5.86,30,30,0,0,1-9,9.2,32.78,32.78,0,0,1-12.2,4.86,38.55,38.55,0,0,1-14-.06,41.93,41.93,0,0,1-25.38-15.83,37.37,37.37,0,0,1-6-12.4,33.21,33.21,0,0,1-.85-13.08,30.27,30.27,0,0,1,4.4-12.23,31.51,31.51,0,0,1,4.7-5.84,41.62,41.62,0,0,1,6.42-5.06Z"/><path class="cls-2" d="M238.4,280.91l-8.87-34.21,13.3-15.41,8.82,40.84,46.06,3.43-14,16.17L246.6,288l23.14,20L259,320.44l-53.35-46.05,10.77-12.48Z"/><path class="cls-2" d="M293.19,207.59,278.4,220.45l7.73,8.88,14-12.14,10.18,11.71-14,12.14,8,9.17,14.79-12.86,10.18,11.71L302,272.73l-46.24-53.18L283,195.88Z"/><path class="cls-2" d="M336.09,242.67l-37-60,14-8.65,48.53,20.7-22.61-36.68,13.95-8.6,37,60L376,218l-48.52-20.7L350.12,234Z"/><path class="cls-2" d="M412.51,161.12a40.47,40.47,0,0,1-1.21-14.81,36.86,36.86,0,0,1,4-13.28A32.94,32.94,0,0,1,424,122.58a36.51,36.51,0,0,1,27.36-7.21,33.3,33.3,0,0,1,12.79,4.8,36.54,36.54,0,0,1,10.05,9.58A42.42,42.42,0,0,1,481.62,158a36.62,36.62,0,0,1-4,13.29,33.33,33.33,0,0,1-8.77,10.47A36.48,36.48,0,0,1,441.47,189a32.81,32.81,0,0,1-12.71-4.82,36.83,36.83,0,0,1-10-9.59A40.41,40.41,0,0,1,412.51,161.12Zm16.67-4.39a20.65,20.65,0,0,0,3.36,7.14,19.87,19.87,0,0,0,5.31,5,17.38,17.38,0,0,0,6.53,2.48,16.53,16.53,0,0,0,7-.34,16.75,16.75,0,0,0,6.26-3.15,17.93,17.93,0,0,0,4.5-5.39,19.53,19.53,0,0,0,2.21-7,20.67,20.67,0,0,0-.6-7.87,20.34,20.34,0,0,0-3.36-7.13,19.23,19.23,0,0,0-5.35-5,17.88,17.88,0,0,0-6.56-2.48,17,17,0,0,0-13.26,3.49,17.4,17.4,0,0,0-4.45,5.38,19.77,19.77,0,0,0-2.17,7A20.65,20.65,0,0,0,429.18,156.73Z"/><path class="cls-2" d="M493.08,106.71l24.36-1.24a26.42,26.42,0,0,1,12.28,2.27,33.37,33.37,0,0,1,10.3,7.2,36.48,36.48,0,0,1,7.25,10.86,38.27,38.27,0,0,1,1.4,26.7,36.37,36.37,0,0,1-6.07,11.58,32.91,32.91,0,0,1-9.51,8.25A26.45,26.45,0,0,1,521,175.85l-24.35,1.24Zm19.25,54.05,3.78-.2a18.57,18.57,0,0,0,7.57-1.88,16.28,16.28,0,0,0,5.46-4.39,18,18,0,0,0,3.21-6.39,24.65,24.65,0,0,0,.82-8,24.19,24.19,0,0,0-1.66-7.78,18.52,18.52,0,0,0-3.89-6.07,16.36,16.36,0,0,0-5.88-3.82,18.48,18.48,0,0,0-7.63-1.11l-3.78.19Z"/><path class="cls-2" d="M602.11,124.9l-19.48-2.2-1.32,11.71,18.39,2.07L598,151.9l-18.38-2.08-1.36,12.08,19.47,2.19L596,179.51l-35.85-4,7.89-70,35.85,4Z"/><path class="cls-2" d="M602.21,178.78l31.5-64,15.56,4.92.79,39.65,23.35-32L689,132.28l-11,70.44-15.64-4.94,7-40.32-26.5,34.16-6.26-2-1.32-43-17.44,37Z"/><path class="cls-2" d="M730.55,151.37l-14.94,44.36,35.59-31.4,11.12,7L749.52,217,783,184.26l14.6,9.16L744.1,243.06l-14.25-8.93L741,192.91l-32.25,28L694.52,212l21.42-69.75Z"/><path class="cls-2" d="M820.44,216.4l-46.73,52.75-12.34-10.94,46.74-52.74Z"/><path class="cls-2" d="M782.64,276l53.3-46.1,10.78,12.46-12.67,51.22,32.59-28.19,10.73,12.4-53.3,46.1-10.73-12.4L826,260.29l-32.59,28.19Z"/><path class="cls-2" d="M880.36,340.11l16.57,28.21q-4.84,2.83-9,4.8a39.83,39.83,0,0,1-8.19,2.86,35.57,35.57,0,0,1-10.85.81,29.3,29.3,0,0,1-9.72-2.53,31.52,31.52,0,0,1-8.28-5.52,34.91,34.91,0,0,1-6.49-8.09,32.81,32.81,0,0,1-4.5-13,30.32,30.32,0,0,1,1.27-12.89,35.07,35.07,0,0,1,6.7-11.84A48.66,48.66,0,0,1,874,307.54a33.91,33.91,0,0,1,13.57-.07,30.88,30.88,0,0,1,11.91,5.34,34.44,34.44,0,0,1,9.37,10.59,31.68,31.68,0,0,1,4.7,17.43q-.32,8.87-6.73,17.7l-14.12-9.84q3.89-4.83,4.3-9.11a13.26,13.26,0,0,0-1.85-8.13,14.58,14.58,0,0,0-4.74-5A14.88,14.88,0,0,0,884,324.2a21.83,21.83,0,0,0-7.63.58,30.75,30.75,0,0,0-8.35,3.49,31.17,31.17,0,0,0-6.64,5.12,19.65,19.65,0,0,0-4.13,6.08,14.41,14.41,0,0,0-1.1,6.7,16.07,16.07,0,0,0,2.33,7,18.32,18.32,0,0,0,2.91,3.76,11.84,11.84,0,0,0,3.76,2.52,10.77,10.77,0,0,0,4.53.8A15.16,15.16,0,0,0,875,359l-6.86-11.67Z"/><path class="cls-2" d="M936.63,383.44l-64.58,28.22-6.6-15.1L930,368.33Z"/><path class="cls-2" d="M940.29,439.25,934,420.68l-11.16,3.76,5.9,17.53-14.7,4.95-5.91-17.53-11.51,3.88,6.25,18.57-14.7,5L876.69,422.6l66.79-22.49L955,434.3Z"/><path class="cls-2" d="M949.54,489.45a20.12,20.12,0,0,0,2.39-6,13,13,0,0,0,0-5.35,7.88,7.88,0,0,0-2.74-4.74,5.44,5.44,0,0,0-4.72-1.05,4.64,4.64,0,0,0-2.8,1.64,8.77,8.77,0,0,0-1.5,3,21.25,21.25,0,0,0-.73,3.94c-.14,1.43-.31,2.86-.51,4.28q-1.23,8.52-5.33,13.23t-12,6.41a28,28,0,0,1-9.94.46,20.5,20.5,0,0,1-8.36-3.11,21.56,21.56,0,0,1-6.38-6.54,29.07,29.07,0,0,1-3.87-9.79,35.6,35.6,0,0,1,3.07-23.45l15.93,3.79a28.33,28.33,0,0,0-3.76,8.3,16.06,16.06,0,0,0-.24,7.36q.86,3.94,3.28,5.45a6.59,6.59,0,0,0,5,.94,6.88,6.88,0,0,0,2.59-1.07,5.76,5.76,0,0,0,1.75-2.1,13.47,13.47,0,0,0,1.14-3.38c.28-1.35.57-3,.86-4.87.28-2.25.65-4.46,1.1-6.65a19.27,19.27,0,0,1,2.37-6.1,16.56,16.56,0,0,1,4.72-5,21.71,21.71,0,0,1,8.14-3.26,27.73,27.73,0,0,1,9.6-.48,21.47,21.47,0,0,1,8.05,2.75,19.34,19.34,0,0,1,6.06,5.74,23.81,23.81,0,0,1,3.57,8.57,36.38,36.38,0,0,1,.65,9.92,41.07,41.07,0,0,1-2.09,10.52Z"/><path class="cls-5" d="M752.56,705.91a38.64,38.64,0,0,1-26.87,36.77,38.59,38.59,0,0,1-73.56-23.37l-81.46-81.46a6.8,6.8,0,0,1,9.61-9.61l84.58,84.58a6.8,6.8,0,0,1,1.36,7.65,25,25,0,0,0,40.38,28.16,24.82,24.82,0,0,0,6.85-12.84,6.79,6.79,0,0,1,5.36-5.35,25,25,0,1,0-14.69-47.5,6.83,6.83,0,0,1-7.46-1.42l-85.22-84.28a6.8,6.8,0,0,1,9.56-9.66l82.18,81.28a38.59,38.59,0,0,1,49.38,37Z"/><path class="cls-6" d="M485.11,594.78s-73.68,3.7-91.61-15c0,0-58-29.31-67.46-62,0,0-37.37-54.24-23.24-114.86,0,0,12.3-55.61,61.53-71.56,0,0,36-25.53,85.69-9.57,0,0,70.61,22.83,80.81,44.8,0,0,39.06,39.06,43.16,73.7,0,0,5.09,45.71,6.84,61.53L600.43,526s55.69,12.71,31,51.51l-12.73,17.61s.91,38.45-41.93,39.82c0,0-32.73,36.55-52,13.5,0,0-4.11.62-15.5-30.37Z"/><path class="cls-5" d="M579.92,637.62l77.48,79.31S655.16,767,687,761.14s31.45-23.25,31.45-23.25,41-1.82,16.4-55.15c0,0-10-5-35.09-10l-82.95-77.49s3,34.7-24.62,39.2S579.92,637.62,579.92,637.62Z"/><ellipse class="cls-7" cx="344.76" cy="492.64" rx="11.17" ry="36.69" transform="translate(-223.47 296) rotate(-35.93)"/><circle class="cls-7" cx="375.78" cy="535.46" r="9.34"/><path class="cls-8" d="M615,611.78a43.89,43.89,0,0,0,3.62-16.71l12.73-17.61c24.73-38.8-31-51.51-31-51.51l-19.6-24.16C579.08,486,574,440.26,574,440.26c-4.1-34.64-43.16-73.7-43.16-73.7-10.2-22-80.81-44.8-80.81-44.8-37.12-11.92-66.61-.69-79.15,5.76C422.33,364.94,556.24,472.05,615,611.78Z"/><path class="cls-9" d="M609.12,622.35l20.08,17.26s62.51,48.84,93,97.73c9.54-2,32.55-11.48,12.64-54.6,0,0-10-5-35.09-10l-82.95-77.49S618.37,610.6,609.12,622.35Z"/><path class="cls-6" d="M645,561.69a39.28,39.28,0,0,1-20.91,34.71,39.25,39.25,0,0,1-44.59,44.53,39.26,39.26,0,0,1-74-19.38c-4.68-4.17-14.67-12.65-22.34-19.09-48.34,7.19-99.83-11.28-138.35-49.8-29.61-29.61-47.65-67.32-50.8-106.18-3.19-39.27,9.2-75,34.84-100.67s61.4-38,100.67-34.84c38.86,3.14,76.57,21.18,106.18,50.8h0c38.52,38.51,57,90,49.81,138.32,4.28,5,14.25,16.72,19.17,22.37A39.24,39.24,0,0,1,645,561.69Zm-35.56,30.72A6.79,6.79,0,0,1,614,586a25.29,25.29,0,0,0,9.86-6.15,25.66,25.66,0,0,0-21.14-43.62,7,7,0,0,1-1.12.06,6.75,6.75,0,0,1-4.87-2.23c-4-4.44-22.86-26.59-23.66-27.53a6.8,6.8,0,0,1-1.52-5.56c7.63-44.23-9.82-93.88-45.51-129.58-27.34-27.33-62-44-97.68-46.86-35.23-2.85-67.18,8.12-90,30.9s-33.76,54.74-30.91,90c2.89,35.65,19.53,70.34,46.87,97.67,35.7,35.7,85.35,53.14,129.58,45.51a6.78,6.78,0,0,1,5.51,1.49c2.44,2,23.94,20.09,27.8,23.9a6.76,6.76,0,0,1,2,5.12,5.82,5.82,0,0,1-.07.73A25.66,25.66,0,0,0,569,630.89a6.8,6.8,0,0,1,8.49-4.32,25.66,25.66,0,0,0,32.22-32.14A6.74,6.74,0,0,1,609.43,592.41Zm-78.6-225.84h0Z"/><path class="cls-1" d="M79.28,557.06H91.67q4.41,0,6.71,2.12a8,8,0,0,1,2.29,6.12,8.32,8.32,0,0,1-.87,4A7.33,7.33,0,0,1,97.15,572a10.17,10.17,0,0,1,3,1,6.77,6.77,0,0,1,2,1.72,6.52,6.52,0,0,1,1.12,2.29,10.34,10.34,0,0,1,.34,2.72,9.66,9.66,0,0,1-.78,4,8.11,8.11,0,0,1-2.21,2.92,9.4,9.4,0,0,1-3.46,1.79,16.62,16.62,0,0,1-4.58.59H79.28Zm8.32,12.56h1.52q3.91,0,3.91-3.09t-3.91-3.1H87.6Zm0,13h1.82a9.24,9.24,0,0,0,4.5-.81,3.14,3.14,0,0,0,0-5.17,9.24,9.24,0,0,0-4.5-.81H87.6Z"/><path class="cls-1" d="M127.79,583.5H115.9L114,589.06h-8.87l12.18-32h9.09l12.18,32H129.7Zm-2.21-6.32-3.74-10.65-3.73,10.65Z"/><path class="cls-1" d="M160.55,564.11h-10v5.34h9.13v7h-9.13v12.56h-8.32v-32h18.34Z"/><path class="cls-1" d="M188.56,567.76a8.9,8.9,0,0,0-7.13-3.53,8.75,8.75,0,0,0-3.46.68,8.28,8.28,0,0,0-4.54,4.63,9.06,9.06,0,0,0-.66,3.48,9.19,9.19,0,0,0,.66,3.52,8.49,8.49,0,0,0,7.95,5.35,9.64,9.64,0,0,0,7.18-3.4v9.85l-.85.3a24.6,24.6,0,0,1-3.57,1,16.72,16.72,0,0,1-15-4.45,17.56,17.56,0,0,1-3.71-5.39,16.5,16.5,0,0,1-1.4-6.81,16.32,16.32,0,0,1,1.38-6.77,16.89,16.89,0,0,1,15.47-10,17.43,17.43,0,0,1,3.75.4,22.73,22.73,0,0,1,3.89,1.26Z"/><path class="cls-1" d="M904.44,589.06H878.68l7.94-8.23q3.14-3.27,4.92-5.54a29.77,29.77,0,0,0,2.65-3.84,10.58,10.58,0,0,0,1.09-2.55,8.06,8.06,0,0,0,.21-1.65,4.42,4.42,0,0,0-.23-1.4,3.56,3.56,0,0,0-.7-1.21,3.51,3.51,0,0,0-1.13-.85,3.57,3.57,0,0,0-1.55-.32,3.34,3.34,0,0,0-2.65,1.1,4.07,4.07,0,0,0-1,2.76,11.46,11.46,0,0,0,.13,1.36h-9.08a13.57,13.57,0,0,1,.91-5.09,11.59,11.59,0,0,1,2.57-4,11.24,11.24,0,0,1,3.93-2.54,13.37,13.37,0,0,1,5-.9,14.21,14.21,0,0,1,4.95.85,11.84,11.84,0,0,1,3.92,2.38,11,11,0,0,1,2.59,3.63,11.13,11.13,0,0,1,.93,4.56,10.65,10.65,0,0,1-1.12,4.86,17.13,17.13,0,0,1-3.59,4.56l-5.3,5h10.35Z"/><path class="cls-1" d="M907.2,573a22.55,22.55,0,0,1,1-6.94,16.08,16.08,0,0,1,2.8-5.33,12.5,12.5,0,0,1,4.29-3.41,12.54,12.54,0,0,1,15.25,3.41,16.24,16.24,0,0,1,2.78,5.33,24.58,24.58,0,0,1,0,13.88,16.29,16.29,0,0,1-2.78,5.34,12.14,12.14,0,0,1-4.28,3.44A12.5,12.5,0,0,1,911,585.3a16.13,16.13,0,0,1-2.8-5.34A22.55,22.55,0,0,1,907.2,573Zm8.23,0a17.7,17.7,0,0,0,.39,3.86,11,11,0,0,0,1.08,3,5.71,5.71,0,0,0,1.68,2,3.72,3.72,0,0,0,2.2.7,3.8,3.8,0,0,0,2.19-.7,5.58,5.58,0,0,0,1.67-2,11.3,11.3,0,0,0,1.06-3,19.2,19.2,0,0,0,0-7.7,11,11,0,0,0-1.06-3,5.65,5.65,0,0,0-1.67-1.95,3.8,3.8,0,0,0-2.19-.7,3.72,3.72,0,0,0-2.2.7,5.78,5.78,0,0,0-1.68,1.95,10.69,10.69,0,0,0-1.08,3A17.71,17.71,0,0,0,915.43,573Z"/><path class="cls-1" d="M962.16,589.06H936.4l7.93-8.23q3.15-3.27,4.93-5.54a30.83,30.83,0,0,0,2.65-3.84A10.09,10.09,0,0,0,953,568.9a8.06,8.06,0,0,0,.21-1.65,4.15,4.15,0,0,0-.23-1.4,3.56,3.56,0,0,0-.7-1.21,3.47,3.47,0,0,0-1.12-.85,3.57,3.57,0,0,0-1.55-.32,3.35,3.35,0,0,0-2.66,1.1,4.11,4.11,0,0,0-1,2.76,9.65,9.65,0,0,0,.13,1.36H937a13.57,13.57,0,0,1,.91-5.09,11.57,11.57,0,0,1,2.56-4,11.43,11.43,0,0,1,3.93-2.54,13.42,13.42,0,0,1,5-.9,14.12,14.12,0,0,1,4.94.85,12,12,0,0,1,3.93,2.38,11,11,0,0,1,3.52,8.19,10.66,10.66,0,0,1-1.13,4.86,17.08,17.08,0,0,1-3.58,4.56l-5.31,5h10.36Z"/><path class="cls-1" d="M972.9,564.11h-4.67v-7.05h13v32H972.9Z"/></svg>