<svg xmlns="http://www.w3.org/2000/svg" width="138.775" height="118.946" viewBox="0 0 138.775 118.946"><g transform="translate(-130 -21.027)"><path d="M45.064-5.785A50.849,50.849,0,1,1-5.785,45.064,50.906,50.906,0,0,1,45.064-5.785Zm0,99.641A48.792,48.792,0,1,0-3.728,45.064,48.848,48.848,0,0,0,45.064,93.856Z" transform="translate(155.123 43.06)" fill="#733f14" stroke="#733f14" stroke-width="2"/><path d="M218.887,344.307v-.012a3.659,3.659,0,0,0-4.5-2.572c-.068.02-.135.039-.2.062a3.413,3.413,0,0,0-1.539-1.658,3.468,3.468,0,0,0-2.5-.283,3.3,3.3,0,0,0-2.076,1.6l-2.666,4.65,10.322,5.915,2.815-4.909a3.555,3.555,0,0,0,.35-2.792Zm-10.3.946,1.514-2.632a1,1,0,0,1,.643-.494,1.137,1.137,0,0,1,.841.1,1.118,1.118,0,0,1,.5.661,1.02,1.02,0,0,1-.1.814l-1.507,2.634Zm7.919.681-1.665,2.908-2.311-1.33,1.664-2.9a1.3,1.3,0,0,1,.795-.626,1.33,1.33,0,0,1,1.653.937,1.273,1.273,0,0,1-.135,1.013Z" transform="translate(-65.715 -287.202)" fill="#733f14"/><path d="M261.309,286.523l1.852-2.055-4.293-.658a4.417,4.417,0,0,0,.148-1.394,4.5,4.5,0,0,0-1.434-3,4.547,4.547,0,0,0-3.146-1.116,4.237,4.237,0,0,0-3.022,1.436l-3.324,3.688,8.838,7.967,1.553-1.724-2.346-2.113,1.441-1.6Zm-9.936-3.26,1.777-1.964a1.93,1.93,0,0,1,1.394-.665h.018a2.017,2.017,0,0,1,2.133,1.921,1.943,1.943,0,0,1-.515,1.466l-1.777,1.966Z" transform="translate(-100.817 -236.692)" fill="#733f14"/><path d="M328.866,223.8a5.97,5.97,0,0,0-3.958-2.6,6.194,6.194,0,0,0-2.311,12.17,6.555,6.555,0,0,0,1.219.117,6.2,6.2,0,0,0,5.046-9.693Zm-1.324,4.211a3.859,3.859,0,1,1-.606-2.894A3.676,3.676,0,0,1,327.542,228.008Z" transform="translate(-157.936 -189.652)" fill="#733f14"/><path d="M406.12,164.02l-.549,12.579-2.373.709-4.453-6.194-.334,7.624-2.373.709-7.359-10.219,2.348-.7,5.2,7.216.384-8.884,1.575-.471,5.2,7.217.384-8.884Z" transform="translate(-216.417 -142.725)" fill="#733f14"/><path d="M525.168,174.439l-5.427-7.529.123,7.616-2.311.037-.194-11.9,2.144-.034,5.361,7.432-.123-7.517,2.32-.037.194,11.895Z" transform="translate(-322.225 -141.483)" fill="#733f14"/><path d="M630.781,183.265l-2.311-.825-8.1,9.744,2.327.83,1.445-1.745,4.4,1.569.014,2.266,2.327.83Zm-2.256,7.11-2.808-1,2.775-3.335Z" transform="translate(-406.925 -157.871)" fill="#733f14"/><path d="M703.515,213.766a4.238,4.238,0,0,0-1.907-2.753l-4.179-2.682L691,218.341l1.955,1.255,1.7-2.657,1.811,1.162.044,3.781,2.328,1.495-.046-4.344a4.364,4.364,0,0,0,1.4-.078,4.488,4.488,0,0,0,2.728-1.9A4.537,4.537,0,0,0,703.515,213.766Zm-2.561,2.023a2.079,2.079,0,0,1-1.278.889,1.944,1.944,0,0,1-1.532-.272l-2.227-1.422,2.2-3.423,2.227,1.422a1.945,1.945,0,0,1,.889,1.267A2.088,2.088,0,0,1,700.954,215.788Z" transform="translate(-465.001 -179.159)" fill="#733f14"/><path d="M763.273,263.464l-8.6,8.226-1.6-1.669,4.467-4.275-6.466,2.185-1.187-1.241,2.469-6.356-4.463,4.271-1.6-1.669,8.6-8.226,1.514,1.582-3.3,8.512,8.642-2.927Z" transform="translate(-510.471 -217.295)" fill="#733f14"/><path d="M824.872,335.968l-7.581-.183-4.7,2.705-1.154-2,4.7-2.705,3.644-6.651,1.349,2.343-2.209,4.038,4.6.107Z" transform="translate(-564.033 -276.843)" fill="#733f14"/><path d="M463.947,350.52l-21.507,7.465c.1-.267.187-.533.27-.81,1.255-4.072.128-7.4.19-11.427.167-10.675,15.014-.02,18.308,2.5C462.031,348.879,462.957,349.633,463.947,350.52Z" transform="translate(-260.622 -288.318)" fill="#733f14"/><path d="M440.877,399.784a7.576,7.576,0,0,0-1.452.2l-40.7,9.421a7.909,7.909,0,0,0-1.966.741l-1-2.879a5.125,5.125,0,0,1,3.157-6.518l4.111-1.422,23.575-8.187,5.228-1.818a5.11,5.11,0,0,1,6.516,3.157Z" transform="translate(-222.002 -327.74)" fill="#733f14"/><path d="M443.773,473.293l-54.79,4.118-.491-2.115a6.292,6.292,0,0,1,4.714-7.552l40.7-9.421a6.305,6.305,0,0,1,1.422-.164h.062a6.268,6.268,0,0,1,.779.057,6.407,6.407,0,0,1,.782.158,6.3,6.3,0,0,1,4.509,4.661l2.188,9.458A6.271,6.271,0,0,1,443.773,473.293Z" transform="translate(-216.13 -384.582)" fill="#733f14"/><path d="M408.455,558.559v7.348a7.483,7.483,0,0,1-7.465,7.474H340.964a7.483,7.483,0,0,1-7.474-7.474v-2.844a7.483,7.483,0,0,1,7.474-7.474h.028l1.69-.126.779-.059.784-.055,54.406-4.088.784-.057.784-.06.238-.018a7.39,7.39,0,0,1,2.444.208A7.478,7.478,0,0,1,408.455,558.559Z" transform="translate(-171.037 -461.003)" fill="#733f14"/><ellipse cx="5.928" cy="7.801" rx="5.928" ry="7.801" transform="translate(184.684 79.594)" fill="#fff"/><path d="M3.136-3.4c3.6,0,6.531,3.77,6.531,8.4s-2.93,8.4-6.531,8.4S-3.4,9.644-3.4,5.01-.465-3.4,3.136-3.4Zm0,15.6c2.936,0,5.324-3.229,5.324-7.2s-2.389-7.2-5.324-7.2-5.324,3.229-5.324,7.2S.2,12.208,3.136,12.208Z" transform="translate(187.475 82.386)" fill="#ededed"/><ellipse cx="5.928" cy="7.801" rx="5.928" ry="7.801" transform="translate(203.301 79.594)" fill="#fff"/><path d="M3.136-3.4c3.6,0,6.531,3.77,6.531,8.4s-2.93,8.4-6.531,8.4S-3.4,9.644-3.4,5.01-.465-3.4,3.136-3.4Zm0,15.6c2.936,0,5.324-3.229,5.324-7.2s-2.389-7.2-5.324-7.2-5.324,3.229-5.324,7.2S.2,12.208,3.136,12.208Z" transform="translate(206.092 82.386)" fill="#ededed"/><ellipse cx="3.068" cy="4.977" rx="3.068" ry="4.977" transform="translate(186.173 82.419)" fill="#1d1d1b"/><ellipse cx="3.068" cy="4.977" rx="3.068" ry="4.977" transform="translate(204.796 82.419)" fill="#1d1d1b"/><path d="M521.941,593.238c.448-.135.889.073.917.437.22,2.211-1.625,4.509-4.433,5.354s-5.615-.06-6.649-2.028c-.178-.324.076-.736.533-.871Z" transform="translate(-317.586 -495.617)" fill="#fff"/><path d="M157.1,536.119v1.733h-6.175V536.3a2.744,2.744,0,0,1,.967-1.639,7.434,7.434,0,0,1,1.665-1.024,6.169,6.169,0,0,0,1.244-.736,1.5,1.5,0,0,0,.613-1.1.915.915,0,0,0-.094-.446,1.244,1.244,0,0,0-.659-.613,1.6,1.6,0,0,0-.869-.085,1.673,1.673,0,0,0-.8.356,1.23,1.23,0,0,0-.4.6l-.05.155H150.91l.046-.26a2.844,2.844,0,0,1,.988-1.745,3.335,3.335,0,0,1,1.585-.711,3.27,3.27,0,0,1,1.742.178,2.894,2.894,0,0,1,1.509,1.4,2.54,2.54,0,0,1,.261,1.244,2.954,2.954,0,0,1-.937,2.023,6.984,6.984,0,0,1-1.857,1.2,6.957,6.957,0,0,0-1.027.567,1.548,1.548,0,0,0-.45.45Z" transform="translate(-20.91 -442.828)" fill="#733f14"/><path d="M208.733,531.824a4.728,4.728,0,0,0-.725-1.447,2.837,2.837,0,0,0-4.828,0,5.645,5.645,0,0,0,0,6.33,2.836,2.836,0,0,0,4.828,0,5.188,5.188,0,0,0,.97-3.164,5.81,5.81,0,0,0-.245-1.717Zm-3.143,4.552a1.416,1.416,0,0,1-1.187-.793,4.154,4.154,0,0,1,0-4.088,1.291,1.291,0,0,1,2.38,0,4.141,4.141,0,0,1,0,4.088A1.426,1.426,0,0,1,205.591,536.376Z" transform="translate(-63.091 -442.855)" fill="#733f14"/><path d="M866.532,535.634v1.792h-6.379v-1.61a2.844,2.844,0,0,1,1-1.692,7.826,7.826,0,0,1,1.721-1.058,6.453,6.453,0,0,0,1.292-.759,1.545,1.545,0,0,0,.633-1.139.933.933,0,0,0-.1-.46,1.289,1.289,0,0,0-.681-.635,1.655,1.655,0,0,0-.9-.087,1.732,1.732,0,0,0-.828.373,1.267,1.267,0,0,0-.409.62l-.05.16H860.14l.048-.268a2.942,2.942,0,0,1,1.02-1.8,3.437,3.437,0,0,1,1.639-.739,3.377,3.377,0,0,1,1.8.178,2.974,2.974,0,0,1,1.559,1.447,2.593,2.593,0,0,1,.27,1.294,3.05,3.05,0,0,1-.967,2.089,7.174,7.174,0,0,1-1.92,1.244,7.322,7.322,0,0,0-1.066.587,1.58,1.58,0,0,0-.464.464Z" transform="translate(-604.077 -442.237)" fill="#733f14"/><path d="M915.988,529.34V538.3H914.2v-5.94l-.179.236-1.426-1.072,1.658-2.183Z" transform="translate(-647.212 -443.11)" fill="#733f14"/></g></svg>